<svg xmlns="http://www.w3.org/2000/svg" xmlns:xlink="http://www.w3.org/1999/xlink" width="1080" zoomAndPan="magnify" viewBox="0 0 810 809.999993" height="1080" preserveAspectRatio="xMidYMid meet" version="1.0"><defs><clipPath id="ef9ac7026a"><path d="M 146 123 L 664 123 L 664 689.410156 L 146 689.410156 Z M 146 123 " clip-rule="nonzero"/></clipPath></defs><g clip-path="url(#ef9ac7026a)"><path fill="#1a100b" d="M 637.554688 246.398438 L 430.457031 130 C 414.746094 121.207031 395.242188 121.207031 379.535156 130 L 172.4375 246.398438 C 156.582031 255.285156 146.734375 271.957031 146.734375 289.828125 L 146.734375 522.625 C 146.734375 540.496094 156.582031 557.164062 172.4375 566.054688 L 379.535156 682.453125 C 387.414062 686.871094 396.203125 689.082031 404.996094 689.082031 C 413.785156 689.082031 422.578125 686.871094 430.457031 682.453125 L 637.554688 566.054688 C 653.40625 557.164062 663.253906 540.496094 663.253906 522.625 L 663.253906 289.828125 C 663.253906 271.957031 653.40625 255.285156 637.554688 246.398438 Z M 404.996094 553.804688 C 323.617188 553.804688 257.417969 487.605469 257.417969 406.226562 C 257.417969 324.847656 323.617188 258.648438 404.996094 258.648438 C 451.496094 258.648438 494.445312 280.21875 522.355469 316.96875 L 468.453125 348.144531 C 452.265625 330.417969 429.253906 320.140625 404.996094 320.140625 C 357.53125 320.140625 318.910156 358.761719 318.910156 406.226562 C 318.910156 453.6875 357.53125 492.3125 404.996094 492.3125 C 429.253906 492.3125 452.265625 482.03125 468.453125 464.304688 L 522.355469 495.484375 C 494.445312 532.234375 451.496094 553.804688 404.996094 553.804688 Z M 552.570312 418.523438 L 527.976562 418.523438 L 527.976562 443.121094 L 503.378906 443.121094 L 503.378906 418.523438 L 478.785156 418.523438 L 478.785156 393.929688 L 503.378906 393.929688 L 503.378906 369.332031 L 527.976562 369.332031 L 527.976562 393.929688 L 552.570312 393.929688 Z M 638.660156 418.523438 L 614.0625 418.523438 L 614.0625 443.121094 L 589.464844 443.121094 L 589.464844 418.523438 L 564.871094 418.523438 L 564.871094 393.929688 L 589.464844 393.929688 L 589.464844 369.332031 L 614.0625 369.332031 L 614.0625 393.929688 L 638.660156 393.929688 Z M 638.660156 418.523438 " fill-opacity="1" fill-rule="nonzero"/></g></svg>