<svg xmlns="http://www.w3.org/2000/svg" xmlns:xlink="http://www.w3.org/1999/xlink" width="1080" zoomAndPan="magnify" viewBox="0 0 810 809.999993" height="1080" preserveAspectRatio="xMidYMid meet" version="1.0"><defs><clipPath id="702d8b22e1"><path d="M 317 198 L 496 198 L 496 615.492188 L 317 615.492188 Z M 317 198 " clip-rule="nonzero"/></clipPath></defs><path fill="#1a100b" d="M 256.929688 556.019531 C 248.046875 556.019531 242.125 553.058594 236.203125 547.136719 L 117.75 428.683594 C 105.90625 416.839844 105.90625 399.070312 117.75 387.226562 L 236.203125 268.773438 C 248.046875 256.929688 265.816406 256.929688 277.660156 268.773438 C 289.503906 280.621094 289.503906 298.386719 277.660156 310.234375 L 179.9375 407.957031 L 277.660156 505.679688 C 289.503906 517.523438 289.503906 535.292969 277.660156 547.136719 C 271.738281 553.058594 265.816406 556.019531 256.929688 556.019531 Z M 256.929688 556.019531 " fill-opacity="1" fill-rule="nonzero"/><path fill="#1a100b" d="M 553.058594 556.019531 C 544.175781 556.019531 538.253906 553.058594 532.332031 547.136719 C 520.484375 535.292969 520.484375 517.523438 532.332031 505.679688 L 630.054688 407.957031 L 532.332031 310.234375 C 520.484375 298.386719 520.484375 280.621094 532.332031 268.773438 C 544.175781 256.929688 561.945312 256.929688 573.789062 268.773438 L 692.242188 387.226562 C 704.085938 399.070312 704.085938 416.839844 692.242188 428.683594 L 573.789062 547.136719 C 567.867188 553.058594 561.945312 556.019531 553.058594 556.019531 Z M 553.058594 556.019531 " fill-opacity="1" fill-rule="nonzero"/><g clip-path="url(#702d8b22e1)"><path fill="#1a100b" d="M 345.769531 615.246094 C 342.808594 615.246094 339.847656 615.246094 336.886719 612.285156 C 322.078125 606.363281 313.195312 591.554688 319.117188 573.789062 L 437.570312 218.433594 C 443.492188 203.625 458.300781 194.742188 476.066406 200.664062 C 490.875 206.589844 499.757812 221.394531 493.835938 239.164062 L 375.382812 594.515625 C 369.460938 606.363281 357.613281 615.246094 345.769531 615.246094 Z M 345.769531 615.246094 " fill-opacity="1" fill-rule="nonzero"/></g></svg>