<svg xmlns="http://www.w3.org/2000/svg" xmlns:xlink="http://www.w3.org/1999/xlink" width="1080" zoomAndPan="magnify" viewBox="0 0 810 809.999993" height="1080" preserveAspectRatio="xMidYMid meet" version="1.0"><defs><clipPath id="7518294ae4"><path d="M 141.207031 104.808594 L 668.457031 104.808594 L 668.457031 705.558594 L 141.207031 705.558594 Z M 141.207031 104.808594 " clip-rule="nonzero"/></clipPath></defs><g clip-path="url(#7518294ae4)"><path fill="#1a100b" d="M 141.25 104.929688 L 189.296875 645.066406 L 405.054688 705.0625 L 620.730469 645.117188 L 668.859375 104.929688 Z M 564.652344 281.921875 L 311.78125 281.921875 L 317.808594 349.90625 L 558.628906 349.90625 L 540.496094 553.089844 L 405.054688 590.570312 L 404.933594 590.539062 L 269.570312 552.660156 L 260.113281 446.019531 L 326.4375 446.019531 L 331.378906 501.414062 L 404.976562 521.421875 L 405.054688 521.433594 L 478.730469 502.085938 L 486.417969 416.71875 L 257.398438 416.71875 L 239.527344 215.109375 L 570.539062 215.109375 Z M 564.652344 281.921875 " fill-opacity="1" fill-rule="nonzero"/></g></svg>