<svg xmlns="http://www.w3.org/2000/svg" xmlns:xlink="http://www.w3.org/1999/xlink" width="1080" zoomAndPan="magnify" viewBox="0 0 810 809.999993" height="1080" preserveAspectRatio="xMidYMid meet" version="1.0"><path fill="#1a100b" d="M 347.039062 429.824219 C 347.039062 429.824219 329.722656 440.363281 359.089844 443.375 C 394.550781 447.894531 413.300781 447.140625 452.449219 439.613281 C 452.449219 439.613281 462.984375 446.398438 477.292969 451.664062 C 389.191406 489.308594 277.761719 449.40625 347.039062 429.824219 Z M 335.746094 380.886719 C 335.746094 380.886719 316.917969 395.195312 346.285156 398.199219 C 384.675781 401.960938 414.804688 402.71875 466.753906 392.1875 C 466.753906 392.1875 473.539062 399.71875 484.828125 403.480469 C 378.667969 435.105469 259.699219 406.488281 335.746094 380.894531 Z M 543.554688 466.71875 C 543.554688 466.71875 556.351562 477.257812 529.246094 485.546875 C 478.796875 500.601562 317.675781 505.128906 272.5 485.546875 C 256.695312 478.761719 286.804688 468.972656 296.589844 467.476562 C 306.378906 465.21875 311.644531 465.21875 311.644531 465.21875 C 294.332031 453.167969 196.445312 490.0625 261.953125 500.679688 C 441.902344 530.050781 590.234375 487.882812 543.546875 466.796875 Z M 355.320312 329.679688 C 355.320312 329.679688 273.246094 349.261719 325.945312 356.03125 C 348.535156 359.039062 392.957031 358.289062 434.371094 355.273438 C 468.25 352.269531 502.210938 346.238281 502.210938 346.238281 C 502.210938 346.238281 490.160156 351.511719 481.882812 356.777344 C 398.234375 378.632812 237.859375 368.84375 283.792969 346.253906 C 322.957031 327.429688 355.320312 329.679688 355.320312 329.679688 Z M 502.132812 411.753906 C 586.472656 368.082031 547.308594 325.917969 520.203125 331.191406 C 513.417969 332.695312 510.414062 334.199219 510.414062 334.199219 C 510.414062 334.199219 512.671875 329.679688 517.945312 328.183594 C 571.402344 309.359375 613.570312 384.65625 500.628906 414.019531 C 500.628906 414.019531 501.386719 413.265625 502.132812 411.761719 Z M 363.597656 530.707031 C 444.914062 535.980469 569.148438 527.699219 572.164062 489.292969 C 572.164062 489.292969 566.152344 504.347656 505.15625 515.644531 C 435.886719 528.441406 350.046875 526.9375 299.605469 518.648438 C 299.605469 518.648438 310.140625 527.683594 363.605469 530.699219 Z M 363.597656 530.707031 " fill-opacity="1" fill-rule="nonzero"/><path fill="#1a100b" d="M 450.867188 81.210938 C 450.867188 81.210938 497.546875 128.648438 406.445312 200.164062 C 333.410156 258.140625 389.871094 291.273438 406.445312 328.910156 C 363.527344 290.519531 332.667969 256.628906 353.738281 225.003906 C 384.683594 178.347656 469.753906 155.761719 450.867188 81.210938 Z M 426.777344 297.300781 C 448.609375 322.148438 420.761719 344.738281 420.761719 344.738281 C 420.761719 344.738281 476.476562 316.136719 450.882812 280.734375 C 427.539062 246.851562 409.46875 230.285156 507.351562 173.808594 C 507.351562 173.808594 353 212.199219 426.792969 297.285156 Z M 426.777344 297.300781 " fill-opacity="1" fill-rule="nonzero"/><path fill="#1a100b" d="M 387.921875 691.898438 L 387.921875 618.121094 C 387.921875 599.296875 377.382812 586.5 351.023438 586.5 C 335.96875 586.5 323.164062 590.261719 311.863281 594.777344 L 315.625 608.332031 C 323.902344 605.324219 334.449219 602.316406 345.742188 602.316406 C 360.050781 602.316406 366.828125 608.332031 366.828125 620.390625 L 366.828125 630.179688 L 359.296875 630.179688 C 323.15625 630.179688 306.589844 643.730469 306.589844 665.640625 C 306.589844 683.710938 317.882812 694.242188 338.210938 694.242188 C 351.007812 694.242188 360.800781 688.230469 369.835938 680.691406 L 371.339844 691.984375 L 387.914062 691.984375 Z M 366.835938 667.808594 C 359.304688 674.59375 351.03125 678.347656 343.492188 678.347656 C 333.703125 678.347656 327.6875 672.332031 327.6875 661.773438 C 327.6875 651.210938 333.703125 643.703125 357.808594 643.703125 L 366.835938 643.703125 Z M 458.691406 691.898438 L 432.339844 691.898438 L 400.71875 588.75 L 423.304688 588.75 L 442.886719 651.996094 L 447.40625 670.824219 C 457.195312 643.71875 464.71875 615.855469 467.734375 588.75 L 490.324219 588.75 C 484.308594 622.632812 473.75 659.519531 458.699219 691.898438 Z M 580.667969 691.898438 L 580.667969 618.121094 C 580.667969 599.296875 570.128906 586.5 543.769531 586.5 C 528.714844 586.5 515.910156 590.261719 504.609375 594.777344 L 507.613281 608.332031 C 516.648438 605.324219 527.195312 602.316406 538.484375 602.316406 C 552.789062 602.316406 559.566406 608.332031 559.566406 620.390625 L 559.566406 630.179688 L 552.035156 630.179688 C 515.894531 630.179688 499.328125 643.730469 499.328125 665.640625 C 499.328125 683.710938 509.867188 694.242188 530.195312 694.242188 C 543.75 694.242188 553.539062 688.230469 562.574219 680.691406 L 564.078125 691.984375 L 580.652344 691.984375 Z M 559.582031 667.808594 C 552.050781 674.59375 543.777344 678.347656 536.238281 678.347656 C 526.449219 678.347656 520.433594 672.332031 520.433594 661.773438 C 520.433594 651.210938 526.449219 643.703125 550.554688 643.703125 L 559.589844 643.703125 L 559.589844 667.792969 Z M 283.269531 709.207031 C 277.253906 718.242188 268.210938 725.011719 256.917969 728.789062 L 247.128906 716.738281 C 254.660156 712.222656 262.183594 705.445312 265.199219 699.425781 C 268.203125 694.152344 268.960938 686.625 268.960938 669.304688 L 268.960938 551.859375 L 291.546875 551.859375 L 291.546875 667.808594 C 291.546875 691.152344 289.289062 700.1875 283.269531 709.222656 Z M 283.269531 709.207031 " fill-opacity="1" fill-rule="nonzero"/></svg>