<svg xmlns="http://www.w3.org/2000/svg" xmlns:xlink="http://www.w3.org/1999/xlink" width="1080" zoomAndPan="magnify" viewBox="0 0 810 809.999993" height="1080" preserveAspectRatio="xMidYMid meet" version="1.0"><defs><g/><clipPath id="f5968949ce"><path d="M 134.300781 110.242188 L 675.699219 110.242188 L 675.699219 651.640625 L 134.300781 651.640625 Z M 134.300781 110.242188 " clip-rule="nonzero"/></clipPath><clipPath id="cfe258c534"><path d="M 172.550781 110.242188 L 637.449219 110.242188 C 647.59375 110.242188 657.324219 114.273438 664.496094 121.445312 C 671.667969 128.621094 675.699219 138.347656 675.699219 148.492188 L 675.699219 613.390625 C 675.699219 623.535156 671.667969 633.265625 664.496094 640.4375 C 657.324219 647.613281 647.59375 651.640625 637.449219 651.640625 L 172.550781 651.640625 C 162.40625 651.640625 152.675781 647.613281 145.503906 640.4375 C 138.332031 633.265625 134.300781 623.535156 134.300781 613.390625 L 134.300781 148.492188 C 134.300781 138.347656 138.332031 128.621094 145.503906 121.445312 C 152.675781 114.273438 162.40625 110.242188 172.550781 110.242188 Z M 172.550781 110.242188 " clip-rule="nonzero"/></clipPath></defs><g clip-path="url(#f5968949ce)"><g clip-path="url(#cfe258c534)"><path fill="#1a100b" d="M 134.300781 110.242188 L 675.699219 110.242188 L 675.699219 651.640625 L 134.300781 651.640625 Z M 134.300781 110.242188 " fill-opacity="1" fill-rule="nonzero"/></g></g><g fill="#ffffff" fill-opacity="1"><g transform="translate(359.801558, 616.878911)"><g><path d="M 107.09375 -210.859375 L 107.09375 -59.546875 C 107.09375 -38.929688 101.425781 -23.210938 90.09375 -12.390625 C 78.757812 -1.578125 62.53125 3.828125 41.40625 3.828125 C 35.78125 3.828125 30.238281 3.144531 24.78125 1.78125 C 19.332031 0.425781 14.734375 -1.226562 10.984375 -3.1875 C 7.234375 -5.15625 3.867188 -7.160156 0.890625 -9.203125 C -2.085938 -11.242188 -4.257812 -12.945312 -5.625 -14.3125 L -7.921875 -16.359375 L 7.40625 -56.484375 C 17.457031 -46.941406 26.578125 -42.171875 34.765625 -42.171875 C 42.085938 -42.171875 47.960938 -44.597656 52.390625 -49.453125 C 56.816406 -54.304688 59.03125 -61.757812 59.03125 -71.8125 L 59.03125 -210.859375 Z M 107.09375 -210.859375 "/></g></g></g><g fill="#ffffff" fill-opacity="1"><g transform="translate(479.670268, 616.878911)"><g><path d="M 93.03125 -214.6875 C 104.445312 -214.6875 115.609375 -213.023438 126.515625 -209.703125 C 137.421875 -206.378906 145.515625 -203.097656 150.796875 -199.859375 L 158.453125 -194.75 L 139.03125 -156.40625 C 137.5 -157.4375 135.367188 -158.757812 132.640625 -160.375 C 129.921875 -161.988281 124.8125 -164.160156 117.3125 -166.890625 C 109.8125 -169.617188 102.828125 -170.984375 96.359375 -170.984375 C 88.347656 -170.984375 82.171875 -169.28125 77.828125 -165.875 C 73.484375 -162.46875 71.3125 -157.863281 71.3125 -152.0625 C 71.3125 -149.164062 72.332031 -146.484375 74.375 -144.015625 C 76.414062 -141.546875 79.90625 -138.90625 84.84375 -136.09375 C 89.789062 -133.28125 94.140625 -131.019531 97.890625 -129.3125 C 101.640625 -127.613281 107.429688 -125.0625 115.265625 -121.65625 C 128.898438 -115.863281 140.53125 -107.984375 150.15625 -98.015625 C 159.78125 -88.046875 164.59375 -76.757812 164.59375 -64.15625 C 164.59375 -52.050781 162.421875 -41.484375 158.078125 -32.453125 C 153.734375 -23.421875 147.769531 -16.347656 140.1875 -11.234375 C 132.601562 -6.128906 124.207031 -2.34375 115 0.125 C 105.800781 2.59375 95.835938 3.828125 85.109375 3.828125 C 75.910156 3.828125 66.878906 2.890625 58.015625 1.015625 C 49.148438 -0.847656 41.734375 -3.1875 35.765625 -6 C 29.804688 -8.8125 24.441406 -11.582031 19.671875 -14.3125 C 14.898438 -17.039062 11.410156 -19.34375 9.203125 -21.21875 L 5.875 -24.03125 L 29.90625 -64.40625 C 31.945312 -62.695312 34.753906 -60.519531 38.328125 -57.875 C 41.910156 -55.238281 48.257812 -51.707031 57.375 -47.28125 C 66.488281 -42.851562 74.539062 -40.640625 81.53125 -40.640625 C 101.800781 -40.640625 111.9375 -47.539062 111.9375 -61.34375 C 111.9375 -64.238281 111.210938 -66.921875 109.765625 -69.390625 C 108.316406 -71.859375 105.757812 -74.328125 102.09375 -76.796875 C 98.4375 -79.265625 95.203125 -81.222656 92.390625 -82.671875 C 89.578125 -84.128906 84.972656 -86.347656 78.578125 -89.328125 C 72.191406 -92.304688 67.46875 -94.5625 64.40625 -96.09375 C 51.625 -102.394531 41.738281 -110.273438 34.75 -119.734375 C 27.769531 -129.191406 24.28125 -139.375 24.28125 -150.28125 C 24.28125 -169.195312 31.265625 -184.660156 45.234375 -196.671875 C 59.203125 -208.679688 75.132812 -214.6875 93.03125 -214.6875 Z M 93.03125 -214.6875 "/></g></g></g></svg>