<svg xmlns="http://www.w3.org/2000/svg" xmlns:xlink="http://www.w3.org/1999/xlink" width="1080" zoomAndPan="magnify" viewBox="0 0 810 809.999993" height="1080" preserveAspectRatio="xMidYMid meet" version="1.0"><defs><clipPath id="f6dcd72c0a"><path d="M 87 240.097656 L 723 240.097656 L 723 570.097656 L 87 570.097656 Z M 87 240.097656 " clip-rule="nonzero"/></clipPath><clipPath id="37506c7e41"><path d="M 87.300781 405.234375 C 87.300781 496.316406 229.613281 570.15625 405.152344 570.15625 C 580.6875 570.15625 723 496.316406 723 405.234375 C 723 314.152344 580.6875 240.3125 405.152344 240.3125 C 229.613281 240.3125 87.300781 314.15625 87.300781 405.234375 " clip-rule="nonzero"/></clipPath><clipPath id="22d46f8723"><path d="M 87.300781 405.234375 C 87.300781 496.316406 229.613281 570.15625 405.152344 570.15625 C 580.6875 570.15625 723 496.316406 723 405.234375 C 723 314.152344 580.6875 240.3125 405.152344 240.3125 C 229.613281 240.3125 87.300781 314.15625 87.300781 405.234375 " clip-rule="nonzero"/></clipPath><radialGradient gradientTransform="matrix(1.00687, 0, 0, 0.99313, 278.140381, 298.292797)" gradientUnits="userSpaceOnUse" r="414.537196" cx="0" id="081cd88945" cy="0" fx="0" fy="0"><stop stop-opacity="1" stop-color="rgb(10.198975%, 6.298828%, 4.299927%)" offset="0"/><stop stop-opacity="1" stop-color="rgb(10.198975%, 6.298828%, 4.299927%)" offset="1"/></radialGradient></defs><g clip-path="url(#f6dcd72c0a)"><g clip-path="url(#37506c7e41)"><g clip-path="url(#22d46f8723)"><path fill="url(#081cd88945)" d="M 87.300781 240.3125 L 87.300781 570.097656 L 723 570.097656 L 723 240.3125 Z M 87.300781 240.3125 " fill-rule="nonzero"/></g></g></g><path fill="#1a100b" d="M 405.152344 557.910156 C 573.835938 557.910156 710.585938 489.554688 710.585938 405.234375 C 710.585938 320.914062 573.835938 252.5625 405.152344 252.5625 C 236.464844 252.5625 99.71875 320.914062 99.71875 405.234375 C 99.71875 489.554688 236.464844 557.910156 405.152344 557.910156 " fill-opacity="1" fill-rule="nonzero"/><path fill="#1a100b" d="M 259.988281 424.160156 C 273.859375 424.160156 284.210938 421.636719 290.761719 416.664062 C 297.246094 411.742188 301.722656 403.214844 304.066406 391.316406 C 306.253906 380.199219 305.421875 372.433594 301.589844 368.246094 C 297.675781 363.964844 289.207031 361.792969 276.421875 361.792969 L 254.257812 361.792969 L 241.96875 424.160156 Z M 187.492188 500.988281 C 186.464844 500.988281 185.484375 500.535156 184.832031 499.75 C 184.503906 499.359375 184.277344 498.917969 184.148438 498.425781 C 184.023438 497.933594 184.007812 497.4375 184.109375 496.9375 L 216.675781 331.664062 C 216.75 331.277344 216.890625 330.914062 217.097656 330.574219 C 217.300781 330.238281 217.558594 329.941406 217.867188 329.691406 C 218.175781 329.4375 218.519531 329.246094 218.894531 329.113281 C 219.269531 328.980469 219.660156 328.914062 220.058594 328.914062 L 290.25 328.914062 C 312.308594 328.914062 328.726562 334.808594 339.046875 346.476562 C 349.421875 358.1875 352.628906 374.566406 348.570312 395.144531 C 346.917969 403.527344 344.078125 411.3125 340.132812 418.289062 C 336.175781 425.265625 330.953125 431.726562 324.601562 437.484375 C 316.996094 444.507812 308.386719 449.597656 299.039062 452.59375 C 289.835938 455.550781 278.023438 457.050781 263.917969 457.050781 L 235.496094 457.050781 L 227.378906 498.238281 C 227.304688 498.625 227.164062 498.988281 226.960938 499.328125 C 226.753906 499.667969 226.5 499.960938 226.191406 500.214844 C 225.878906 500.464844 225.539062 500.65625 225.160156 500.789062 C 224.785156 500.925781 224.394531 500.992188 223.996094 500.992188 L 187.484375 500.992188 Z M 187.492188 500.988281 " fill-opacity="1" fill-rule="nonzero"/><path fill="#ffffff" d="M 257.101562 365.195312 L 276.425781 365.195312 C 291.851562 365.195312 297.214844 368.535156 299.035156 370.523438 C 302.054688 373.828125 302.625 380.796875 300.683594 390.671875 C 298.503906 401.726562 294.457031 409.566406 288.660156 413.96875 C 282.726562 418.476562 273.078125 420.757812 259.988281 420.757812 L 246.160156 420.757812 L 257.109375 365.195312 Z M 290.246094 325.507812 L 220.0625 325.507812 C 219.261719 325.507812 218.484375 325.640625 217.730469 325.90625 C 216.976562 326.175781 216.292969 326.558594 215.675781 327.0625 C 215.054688 327.5625 214.542969 328.152344 214.132812 328.832031 C 213.722656 329.511719 213.445312 330.238281 213.289062 331.011719 L 180.726562 496.296875 C 180.628906 496.789062 180.585938 497.285156 180.601562 497.789062 C 180.617188 498.289062 180.6875 498.78125 180.8125 499.269531 C 180.9375 499.753906 181.113281 500.222656 181.34375 500.667969 C 181.574219 501.117188 181.851562 501.535156 182.175781 501.921875 C 182.496094 502.308594 182.859375 502.65625 183.261719 502.964844 C 183.664062 503.273438 184.09375 503.53125 184.554688 503.746094 C 185.011719 503.960938 185.492188 504.121094 185.988281 504.234375 C 186.484375 504.34375 186.988281 504.398438 187.496094 504.398438 L 223.996094 504.398438 C 224.796875 504.398438 225.574219 504.265625 226.328125 503.996094 C 227.082031 503.730469 227.765625 503.347656 228.382812 502.84375 C 229 502.339844 229.515625 501.75 229.925781 501.074219 C 230.332031 500.394531 230.613281 499.667969 230.765625 498.890625 L 238.339844 460.457031 L 263.921875 460.457031 C 278.386719 460.457031 290.5625 458.902344 300.109375 455.832031 C 309.929688 452.6875 318.964844 447.351562 326.960938 439.976562 C 333.570312 433.976562 339.03125 427.242188 343.144531 419.953125 C 347.261719 412.667969 350.238281 404.539062 351.960938 395.800781 C 356.234375 374.136719 352.761719 356.789062 341.648438 344.242188 C 330.644531 331.816406 313.351562 325.519531 290.253906 325.519531 M 237.792969 427.574219 L 259.996094 427.574219 C 274.710938 427.574219 285.675781 424.839844 292.875 419.371094 C 300.078125 413.898438 304.9375 404.769531 307.460938 391.976562 C 309.875 379.695312 308.777344 371.027344 304.164062 365.976562 C 299.546875 360.925781 290.296875 358.402344 276.433594 358.402344 L 251.425781 358.402344 L 237.792969 427.570312 M 290.253906 332.320312 C 311.371094 332.320312 326.773438 337.785156 336.457031 348.71875 C 346.140625 359.648438 349.054688 374.910156 345.191406 394.5 C 343.601562 402.570312 340.910156 409.949219 337.125 416.632812 C 333.339844 423.320312 328.386719 429.441406 322.269531 434.984375 C 314.980469 441.714844 306.882812 446.507812 297.976562 449.363281 C 289.066406 452.226562 277.71875 453.652344 263.921875 453.652344 L 232.65625 453.652344 L 224 497.59375 L 187.5 497.59375 L 220.070312 332.332031 L 290.261719 332.332031 " fill-opacity="1" fill-rule="nonzero"/><path fill="#1a100b" d="M 432.261719 457.042969 C 431.230469 457.042969 430.253906 456.589844 429.601562 455.804688 C 428.945312 455.023438 428.675781 453.992188 428.875 452.996094 L 443.28125 379.867188 C 444.652344 372.910156 444.3125 367.921875 442.328125 365.8125 C 441.117188 364.523438 437.46875 362.359375 426.6875 362.359375 L 400.585938 362.359375 L 382.476562 454.289062 C 382.398438 454.679688 382.257812 455.042969 382.054688 455.382812 C 381.847656 455.71875 381.59375 456.015625 381.285156 456.265625 C 380.972656 456.519531 380.632812 456.710938 380.253906 456.84375 C 379.878906 456.976562 379.488281 457.042969 379.089844 457.042969 L 342.875 457.042969 C 342.621094 457.042969 342.371094 457.015625 342.121094 456.960938 C 341.875 456.90625 341.636719 456.824219 341.40625 456.71875 C 341.175781 456.613281 340.960938 456.480469 340.757812 456.328125 C 340.558594 456.171875 340.375 456 340.214844 455.804688 C 340.054688 455.613281 339.914062 455.402344 339.800781 455.179688 C 339.683594 454.957031 339.597656 454.722656 339.535156 454.480469 C 339.472656 454.238281 339.4375 453.988281 339.429688 453.738281 C 339.421875 453.488281 339.441406 453.238281 339.492188 452.992188 L 372.058594 287.722656 C 372.132812 287.332031 372.273438 286.96875 372.480469 286.632812 C 372.683594 286.292969 372.941406 285.996094 373.25 285.746094 C 373.558594 285.496094 373.902344 285.300781 374.277344 285.167969 C 374.652344 285.035156 375.042969 284.96875 375.441406 284.96875 L 411.65625 284.96875 C 411.910156 284.96875 412.160156 284.996094 412.410156 285.050781 C 412.660156 285.105469 412.898438 285.1875 413.128906 285.292969 C 413.355469 285.402344 413.574219 285.53125 413.773438 285.683594 C 413.972656 285.839844 414.15625 286.011719 414.316406 286.207031 C 414.480469 286.398438 414.617188 286.609375 414.734375 286.832031 C 414.847656 287.054688 414.9375 287.289062 415 287.53125 C 415.0625 287.777344 415.097656 288.023438 415.105469 288.273438 C 415.109375 288.523438 415.089844 288.773438 415.042969 289.019531 L 407.183594 328.910156 L 435.257812 328.910156 C 456.648438 328.910156 471.152344 332.628906 479.601562 340.28125 C 488.222656 348.085938 490.898438 360.566406 487.585938 377.382812 L 472.433594 454.292969 C 472.359375 454.679688 472.21875 455.042969 472.011719 455.382812 C 471.808594 455.722656 471.550781 456.019531 471.242188 456.269531 C 470.933594 456.519531 470.589844 456.710938 470.214844 456.847656 C 469.839844 456.980469 469.449219 457.046875 469.050781 457.046875 L 432.261719 457.046875 Z M 432.261719 457.042969 " fill-opacity="1" fill-rule="nonzero"/><path fill="#ffffff" d="M 411.660156 281.566406 L 375.445312 281.566406 C 374.644531 281.566406 373.867188 281.699219 373.113281 281.96875 C 372.359375 282.234375 371.675781 282.617188 371.058594 283.121094 C 370.441406 283.621094 369.925781 284.214844 369.515625 284.890625 C 369.109375 285.570312 368.828125 286.296875 368.671875 287.074219 L 336.105469 452.34375 C 336.011719 452.835938 335.96875 453.335938 335.984375 453.835938 C 335.996094 454.335938 336.066406 454.832031 336.191406 455.316406 C 336.316406 455.804688 336.496094 456.269531 336.726562 456.71875 C 336.957031 457.164062 337.234375 457.582031 337.554688 457.96875 C 337.878906 458.355469 338.242188 458.703125 338.644531 459.011719 C 339.046875 459.320312 339.476562 459.582031 339.9375 459.796875 C 340.394531 460.007812 340.875 460.171875 341.371094 460.28125 C 341.867188 460.390625 342.371094 460.445312 342.878906 460.445312 L 379.089844 460.445312 C 379.890625 460.445312 380.667969 460.3125 381.421875 460.046875 C 382.175781 459.777344 382.863281 459.394531 383.480469 458.890625 C 384.097656 458.390625 384.609375 457.800781 385.019531 457.121094 C 385.429688 456.441406 385.710938 455.714844 385.863281 454.941406 L 403.433594 365.761719 L 426.691406 365.761719 C 437.453125 365.761719 439.714844 368.027344 439.804688 368.125 C 440.457031 368.820312 441.316406 372.027344 439.898438 379.214844 L 425.492188 452.34375 C 425.394531 452.835938 425.355469 453.335938 425.371094 453.835938 C 425.382812 454.335938 425.453125 454.832031 425.578125 455.316406 C 425.703125 455.804688 425.882812 456.269531 426.113281 456.71875 C 426.34375 457.164062 426.617188 457.582031 426.941406 457.96875 C 427.265625 458.355469 427.628906 458.703125 428.03125 459.011719 C 428.429688 459.320312 428.863281 459.582031 429.324219 459.796875 C 429.78125 460.007812 430.261719 460.171875 430.757812 460.28125 C 431.253906 460.390625 431.757812 460.445312 432.265625 460.445312 L 469.050781 460.445312 C 469.851562 460.445312 470.628906 460.3125 471.382812 460.046875 C 472.136719 459.777344 472.824219 459.394531 473.441406 458.890625 C 474.058594 458.390625 474.570312 457.800781 474.980469 457.121094 C 475.390625 456.441406 475.671875 455.714844 475.824219 454.941406 L 490.976562 378.03125 C 494.53125 359.976562 491.488281 346.433594 481.941406 337.777344 C 472.824219 329.519531 457.558594 325.507812 435.265625 325.507812 L 411.371094 325.507812 L 418.433594 289.667969 C 418.53125 289.175781 418.570312 288.679688 418.558594 288.175781 C 418.542969 287.675781 418.472656 287.179688 418.347656 286.695312 C 418.222656 286.207031 418.046875 285.742188 417.816406 285.292969 C 417.585938 284.847656 417.308594 284.429688 416.984375 284.042969 C 416.660156 283.65625 416.296875 283.308594 415.898438 283 C 415.496094 282.691406 415.066406 282.429688 414.605469 282.214844 C 414.144531 282.003906 413.667969 281.839844 413.167969 281.730469 C 412.671875 281.621094 412.171875 281.566406 411.660156 281.566406 M 411.660156 288.371094 L 403.003906 332.308594 L 435.265625 332.308594 C 455.566406 332.308594 469.566406 335.804688 477.273438 342.785156 C 484.980469 349.765625 487.285156 361.085938 484.207031 376.734375 L 469.054688 453.640625 L 432.269531 453.640625 L 446.671875 380.515625 C 448.3125 372.199219 447.710938 366.523438 444.863281 363.496094 C 442.015625 360.472656 435.957031 358.957031 426.695312 358.957031 L 397.746094 358.957031 L 379.09375 453.640625 L 342.878906 453.640625 L 375.445312 288.371094 L 411.660156 288.371094 " fill-opacity="1" fill-rule="nonzero"/><path fill="#1a100b" d="M 544.890625 424.160156 C 558.757812 424.160156 569.113281 421.636719 575.664062 416.664062 C 582.148438 411.742188 586.625 403.214844 588.972656 391.316406 C 591.160156 380.199219 590.324219 372.433594 586.492188 368.246094 C 582.578125 363.964844 574.109375 361.792969 561.324219 361.792969 L 539.160156 361.792969 L 526.871094 424.160156 Z M 472.390625 500.984375 C 471.363281 500.984375 470.386719 500.53125 469.730469 499.746094 C 469.402344 499.355469 469.175781 498.914062 469.050781 498.421875 C 468.921875 497.929688 468.90625 497.433594 469.003906 496.933594 L 501.574219 331.664062 C 501.648438 331.273438 501.789062 330.910156 501.996094 330.570312 C 502.199219 330.234375 502.457031 329.9375 502.765625 329.6875 C 503.074219 329.4375 503.417969 329.242188 503.792969 329.109375 C 504.171875 328.976562 504.558594 328.910156 504.960938 328.910156 L 575.148438 328.910156 C 597.210938 328.910156 613.625 334.808594 623.945312 346.472656 C 634.324219 358.183594 637.523438 374.558594 633.46875 395.140625 C 631.816406 403.523438 628.976562 411.3125 625.027344 418.285156 C 621.074219 425.265625 615.851562 431.722656 609.496094 437.480469 C 601.890625 444.503906 593.28125 449.59375 583.933594 452.589844 C 574.734375 455.546875 562.917969 457.046875 548.816406 457.046875 L 520.375 457.046875 L 512.261719 498.234375 C 512.183594 498.621094 512.042969 498.984375 511.839844 499.324219 C 511.632812 499.664062 511.378906 499.960938 511.066406 500.210938 C 510.757812 500.460938 510.417969 500.652344 510.039062 500.789062 C 509.664062 500.921875 509.273438 500.988281 508.875 500.988281 L 472.371094 500.988281 Z M 472.390625 500.984375 " fill-opacity="1" fill-rule="nonzero"/><path fill="#ffffff" d="M 542.003906 365.195312 L 561.328125 365.195312 C 576.753906 365.195312 582.117188 368.535156 583.9375 370.523438 C 586.960938 373.828125 587.527344 380.796875 585.585938 390.671875 C 583.402344 401.726562 579.359375 409.566406 573.5625 413.96875 C 567.628906 418.476562 557.980469 420.757812 544.890625 420.757812 L 531.058594 420.757812 Z M 575.148438 325.507812 L 504.957031 325.507812 C 504.15625 325.507812 503.378906 325.640625 502.628906 325.90625 C 501.875 326.175781 501.1875 326.558594 500.570312 327.0625 C 499.953125 327.5625 499.441406 328.152344 499.03125 328.832031 C 498.621094 329.511719 498.339844 330.238281 498.1875 331.011719 L 465.617188 496.296875 C 465.523438 496.789062 465.480469 497.285156 465.496094 497.789062 C 465.507812 498.289062 465.578125 498.78125 465.703125 499.269531 C 465.828125 499.753906 466.007812 500.222656 466.238281 500.667969 C 466.46875 501.117188 466.742188 501.535156 467.066406 501.921875 C 467.390625 502.308594 467.753906 502.65625 468.15625 502.964844 C 468.554688 503.273438 468.988281 503.53125 469.445312 503.746094 C 469.90625 503.960938 470.386719 504.121094 470.882812 504.234375 C 471.378906 504.34375 471.878906 504.398438 472.390625 504.398438 L 508.890625 504.398438 C 509.691406 504.398438 510.46875 504.265625 511.21875 503.996094 C 511.972656 503.730469 512.660156 503.347656 513.277344 502.84375 C 513.894531 502.339844 514.410156 501.75 514.816406 501.074219 C 515.226562 500.394531 515.507812 499.667969 515.660156 498.890625 L 523.234375 460.457031 L 548.8125 460.457031 C 563.277344 460.457031 575.453125 458.902344 585.003906 455.832031 C 594.820312 452.6875 603.855469 447.351562 611.855469 439.972656 C 618.46875 433.976562 623.910156 427.242188 628.039062 419.953125 C 632.164062 412.667969 635.132812 404.539062 636.855469 395.800781 C 641.125 374.136719 637.65625 356.789062 626.542969 344.242188 C 615.539062 331.816406 598.246094 325.519531 575.144531 325.519531 M 522.6875 427.574219 L 544.886719 427.574219 C 559.601562 427.574219 570.566406 424.839844 577.769531 419.371094 C 584.96875 413.898438 589.828125 404.769531 592.355469 391.976562 C 594.769531 379.695312 593.671875 371.027344 589.054688 365.976562 C 584.4375 360.925781 575.191406 358.402344 561.324219 358.402344 L 536.316406 358.402344 L 522.6875 427.570312 M 575.148438 332.320312 C 596.261719 332.320312 611.667969 337.785156 621.347656 348.71875 C 631.03125 359.648438 633.945312 374.910156 630.082031 394.5 C 628.492188 402.570312 625.804688 409.949219 622.019531 416.632812 C 618.230469 423.320312 613.277344 429.441406 607.164062 434.984375 C 599.875 441.714844 591.777344 446.507812 582.867188 449.363281 C 573.957031 452.226562 562.609375 453.652344 548.816406 453.652344 L 517.550781 453.652344 L 508.894531 497.59375 L 472.390625 497.59375 L 504.960938 332.320312 L 575.148438 332.320312 " fill-opacity="1" fill-rule="nonzero"/></svg>