<svg xmlns="http://www.w3.org/2000/svg" xmlns:xlink="http://www.w3.org/1999/xlink" width="1080" zoomAndPan="magnify" viewBox="0 0 810 809.999993" height="1080" preserveAspectRatio="xMidYMid meet" version="1.0"><defs><clipPath id="584ab0d50e"><path d="M 132.246094 133.734375 L 537 133.734375 L 537 539 L 132.246094 539 Z M 132.246094 133.734375 " clip-rule="nonzero"/></clipPath><clipPath id="4a10562ad0"><path d="M 403.121094 133.675781 C 264.6875 133.675781 273.332031 193.703125 273.332031 193.703125 L 273.484375 255.894531 L 405.578125 255.894531 L 405.578125 274.566406 L 221.019531 274.566406 C 221.019531 274.566406 132.441406 264.519531 132.441406 404.1875 C 132.441406 543.867188 209.753906 538.914062 209.753906 538.914062 L 255.894531 538.914062 L 255.894531 474.089844 C 255.894531 474.089844 253.40625 396.78125 331.972656 396.78125 L 462.988281 396.78125 C 462.988281 396.78125 536.585938 397.976562 536.585938 325.644531 L 536.585938 206.050781 C 536.585938 206.050781 547.773438 133.675781 403.121094 133.675781 Z M 330.273438 175.496094 C 343.417969 175.496094 354.035156 186.117188 354.035156 199.257812 C 354.035156 212.402344 343.417969 223.023438 330.273438 223.023438 C 317.132812 223.023438 306.507812 212.402344 306.507812 199.257812 C 306.507812 186.117188 317.132812 175.496094 330.273438 175.496094 Z M 330.273438 175.496094 " clip-rule="nonzero"/></clipPath><clipPath id="8402d24830"><path d="M 273 270 L 677.496094 270 L 677.496094 675.984375 L 273 675.984375 Z M 273 270 " clip-rule="nonzero"/></clipPath><clipPath id="385f1715cf"><path d="M 407.050781 676.113281 C 545.46875 676.113281 536.820312 616.074219 536.820312 616.074219 L 536.671875 553.878906 L 404.574219 553.878906 L 404.574219 535.21875 L 589.132812 535.21875 C 589.132812 535.21875 677.71875 545.253906 677.71875 405.597656 C 677.71875 265.921875 600.40625 270.875 600.40625 270.875 L 554.265625 270.875 L 554.265625 335.683594 C 554.265625 335.683594 556.742188 413.003906 478.191406 413.003906 L 347.160156 413.003906 C 347.160156 413.003906 273.558594 411.808594 273.558594 484.148438 L 273.558594 603.734375 C 273.558594 603.734375 262.382812 676.113281 407.050781 676.113281 Z M 479.878906 634.289062 C 466.746094 634.289062 456.113281 623.65625 456.113281 610.523438 C 456.113281 597.371094 466.746094 586.761719 479.878906 586.761719 C 493.03125 586.761719 503.640625 597.371094 503.640625 610.523438 C 503.640625 623.65625 493.03125 634.289062 479.878906 634.289062 Z M 479.878906 634.289062 " clip-rule="nonzero"/></clipPath></defs><g clip-path="url(#584ab0d50e)"><g clip-path="url(#4a10562ad0)"><path fill="#1a100b" d="M 132.441406 133.734375 L 132.441406 543.867188 L 547.773438 543.867188 L 547.773438 133.734375 Z M 132.441406 133.734375 " fill-opacity="1" fill-rule="nonzero"/></g></g><g clip-path="url(#8402d24830)"><g clip-path="url(#385f1715cf)"><path fill="#1a100b" d="M 262.382812 265.921875 L 262.382812 675.984375 L 677.496094 675.984375 L 677.496094 265.921875 Z M 262.382812 265.921875 " fill-opacity="1" fill-rule="nonzero"/></g></g></svg>