<svg xmlns="http://www.w3.org/2000/svg" xmlns:xlink="http://www.w3.org/1999/xlink" width="1080" zoomAndPan="magnify" viewBox="0 0 810 809.999993" height="1080" preserveAspectRatio="xMidYMid meet" version="1.0"><defs><clipPath id="a44b0fe2b4"><path d="M 83 356 L 349 356 L 349 485.253906 L 83 485.253906 Z M 83 356 " clip-rule="nonzero"/></clipPath></defs><g clip-path="url(#a44b0fe2b4)"><path fill="#1a100b" d="M 83.359375 455.820312 L 104.550781 455.820312 L 104.550781 372.164062 L 137.359375 445.121094 C 141.226562 453.914062 146.53125 457.074219 156.921875 457.074219 C 167.3125 457.074219 172.40625 453.949219 176.28125 445.121094 L 209.09375 372.164062 L 209.09375 455.851562 L 230.289062 455.851562 L 230.289062 372.300781 C 230.289062 364.152344 227.023438 360.207031 220.300781 358.171875 C 204.203125 353.148438 193.402344 357.496094 188.511719 368.363281 L 156.316406 440.363281 L 125.132812 368.332031 C 120.449219 357.464844 109.445312 353.117188 93.347656 358.140625 C 86.617188 360.179688 83.359375 364.121094 83.359375 372.269531 Z M 247.902344 387.707031 L 269.089844 387.707031 L 269.089844 433.816406 C 268.894531 436.324219 269.894531 442.203125 281.503906 442.382812 C 287.429688 442.476562 327.21875 442.382812 327.589844 442.382812 L 327.589844 387.476562 L 348.824219 387.476562 C 348.917969 387.476562 348.800781 462.339844 348.804688 462.660156 C 348.921875 481.125 325.894531 485.132812 315.28125 485.445312 L 248.367188 485.445312 L 248.367188 471.183594 L 315.402344 471.183594 C 329.039062 469.738281 327.433594 462.960938 327.433594 460.679688 L 327.433594 455.117188 L 282.390625 455.117188 C 261.433594 454.929688 248.089844 445.78125 247.921875 435.257812 C 247.90625 434.316406 248.375 388.15625 247.910156 387.703125 Z M 247.902344 387.707031 " fill-opacity="1" fill-rule="nonzero"/></g><path fill="#1a100b" d="M 365.160156 455.820312 L 426.089844 455.820312 C 433.21875 455.820312 440.152344 454.332031 445.65625 451.746094 C 454.828125 447.535156 459.3125 441.828125 459.3125 434.355469 L 459.3125 418.871094 C 459.3125 412.753906 454.21875 407.050781 444.234375 403.246094 C 438.9375 401.207031 432.414062 400.121094 426.097656 400.121094 L 400.421875 400.121094 C 391.863281 400.121094 387.785156 397.539062 386.769531 391.835938 C 386.566406 391.15625 386.566406 390.578125 386.566406 389.933594 L 386.566406 380.289062 C 386.566406 379.746094 386.566406 379.199219 386.769531 378.519531 C 387.785156 374.175781 390.03125 372.949219 397.566406 372.238281 C 398.179688 372.238281 398.996094 372.101562 399.609375 372.101562 L 460.132812 372.101562 L 460.132812 357.976562 L 400.628906 357.976562 C 392.066406 357.976562 387.585938 358.519531 383.507812 359.742188 C 370.855469 363.683594 365.355469 369.964844 365.355469 380.832031 L 365.355469 393.195312 C 365.355469 402.707031 376.160156 410.859375 394.289062 412.757812 C 396.332031 412.894531 398.367188 413.027344 400.402344 413.027344 L 422.410156 413.027344 C 423.226562 413.027344 424.042969 413.027344 424.652344 413.167969 C 431.375 413.710938 434.234375 414.933594 436.269531 417.375 C 437.527344 418.632812 437.902344 419.824219 437.902344 421.144531 L 437.902344 433.507812 C 437.902344 435.003906 436.882812 436.90625 434.847656 438.535156 C 433.011719 440.167969 429.957031 441.25 425.878906 441.523438 C 425.0625 441.523438 424.453125 441.660156 423.640625 441.660156 L 365.152344 441.660156 L 365.152344 455.789062 Z M 591.515625 431.234375 C 591.515625 445.769531 602.3125 453.921875 624.117188 455.550781 C 626.152344 455.710938 628.191406 455.800781 630.230469 455.820312 L 685.457031 455.820312 L 685.457031 441.695312 L 629.824219 441.695312 C 617.394531 441.695312 612.703125 438.566406 612.703125 431.097656 L 612.703125 358.003906 L 591.511719 358.003906 L 591.511719 431.226562 Z M 472.832031 431.96875 L 472.832031 381.601562 C 472.832031 368.804688 481.8125 361.042969 499.578125 358.59375 C 501.476562 358.324219 503.382812 358.1875 505.300781 358.1875 L 545.527344 358.1875 C 547.511719 358.1875 549.484375 358.324219 551.449219 358.59375 C 569.214844 361.042969 578.199219 368.804688 578.199219 381.601562 L 578.199219 431.96875 C 578.199219 442.351562 574.382812 447.90625 565.589844 451.527344 L 586.464844 470.375 L 561.855469 470.375 L 544.96875 455.128906 L 527.964844 456.207031 L 505.300781 456.207031 C 501.421875 456.207031 497.335938 455.660156 492.84375 454.433594 C 479.335938 450.757812 472.832031 443.679688 472.832031 431.96875 Z M 495.707031 430.710938 C 495.707031 431.394531 495.910156 432.074219 496.113281 432.890625 C 497.371094 438.746094 502.851562 442.015625 511.191406 442.015625 L 530.445312 442.015625 L 512.761719 426.046875 L 537.371094 426.046875 L 552.761719 439.972656 C 555.601562 438.457031 557.472656 436.140625 558.101562 433.164062 C 558.304688 432.488281 558.304688 431.804688 558.304688 431.125 L 558.304688 382.832031 C 558.304688 382.289062 558.304688 381.574219 558.101562 380.925781 C 556.84375 375.480469 551.359375 372.347656 543.191406 372.347656 L 511.25 372.347656 C 501.824219 372.347656 495.730469 376.433594 495.730469 382.832031 L 495.730469 430.75 Z M 495.707031 430.710938 " fill-opacity="1" fill-rule="nonzero"/><path fill="#1a100b" d="M 704.089844 334.566406 C 691.0625 334.214844 681.109375 335.421875 672.605469 339.011719 C 670.183594 340.03125 666.332031 340.054688 665.933594 343.085938 C 667.265625 344.480469 667.472656 346.558594 668.527344 348.269531 C 670.558594 351.558594 673.992188 355.964844 677.046875 358.269531 C 680.390625 360.792969 683.832031 363.496094 687.421875 365.683594 C 693.800781 369.574219 700.917969 371.792969 707.054688 375.683594 C 710.671875 377.976562 714.265625 380.867188 717.796875 383.460938 C 719.539062 384.742188 720.71875 386.734375 722.980469 387.535156 L 722.980469 387.164062 C 721.785156 385.648438 721.480469 383.5625 720.386719 381.984375 L 715.574219 377.167969 C 710.863281 370.886719 704.886719 365.429688 698.53125 360.867188 C 693.464844 357.226562 682.125 352.316406 680.011719 346.417969 L 679.640625 346.046875 C 683.234375 345.636719 687.4375 344.339844 690.757812 343.453125 C 696.328125 341.960938 701.304688 342.347656 707.0625 340.863281 L 714.839844 338.640625 L 714.839844 337.15625 C 711.933594 334.171875 709.859375 330.226562 706.691406 327.527344 C 698.398438 320.460938 689.34375 313.40625 680.023438 307.519531 C 674.851562 304.25 668.464844 302.132812 662.984375 299.367188 C 661.140625 298.4375 657.898438 297.953125 656.683594 296.402344 C 653.808594 292.734375 652.238281 288.078125 650.019531 283.835938 C 645.371094 274.886719 640.804688 265.105469 636.683594 255.683594 C 633.871094 249.261719 632.035156 242.925781 628.535156 237.160156 C 611.714844 209.507812 593.605469 192.816406 565.5625 176.414062 C 559.59375 172.929688 552.410156 171.546875 544.816406 169.746094 L 532.59375 169.003906 C 530.105469 167.96875 527.515625 164.921875 525.179688 163.445312 C 515.886719 157.570312 492.058594 144.808594 485.175781 161.558594 C 480.832031 172.15625 491.667969 182.492188 495.546875 187.863281 C 498.265625 191.632812 501.753906 195.851562 503.695312 200.089844 C 504.972656 202.871094 505.195312 205.664062 506.289062 208.609375 C 508.980469 215.835938 511.324219 223.757812 514.808594 230.464844 C 516.566406 233.859375 518.507812 237.433594 520.734375 240.464844 C 522.101562 242.328125 524.441406 243.148438 524.808594 246.027344 C 522.523438 249.230469 522.390625 254.191406 521.101562 258.25 C 515.3125 276.507812 517.496094 299.195312 525.917969 312.707031 C 528.503906 316.851562 534.585938 325.75 542.957031 322.335938 C 550.277344 319.351562 548.609375 310.117188 550.738281 301.964844 C 551.207031 300.113281 550.917969 298.761719 551.851562 297.519531 L 551.851562 297.890625 L 558.519531 311.222656 C 563.449219 319.171875 572.214844 327.480469 579.632812 333.085938 C 583.480469 335.992188 586.542969 341.015625 591.488281 342.714844 L 591.488281 342.347656 L 591.117188 342.347656 C 590.152344 340.839844 588.644531 340.21875 587.410156 339.015625 C 584.511719 336.171875 581.285156 332.640625 578.886719 329.386719 C 572.132812 320.21875 566.171875 310.195312 560.738281 299.75 C 558.144531 294.765625 555.886719 289.265625 553.703125 284.191406 C 552.859375 282.234375 552.871094 279.28125 551.113281 278.265625 C 548.714844 281.984375 545.183594 284.988281 543.332031 289.378906 C 540.367188 296.394531 539.984375 304.953125 538.886719 313.828125 C 538.238281 314.0625 538.523438 313.902344 538.144531 314.199219 C 532.988281 312.957031 531.171875 307.644531 529.257812 303.085938 C 524.40625 291.558594 523.507812 273.007812 527.773438 259.746094 C 528.871094 256.316406 533.867188 245.503906 531.847656 242.335938 C 530.882812 239.171875 527.703125 237.308594 525.921875 234.921875 C 523.722656 231.9375 521.515625 228 519.992188 224.550781 C 516.023438 215.566406 514.167969 205.484375 509.992188 196.398438 C 507.996094 192.058594 504.621094 187.664062 501.84375 183.832031 C 498.773438 179.5625 495.332031 176.40625 492.957031 171.269531 C 492.105469 169.433594 490.957031 166.496094 492.214844 164.601562 C 492.335938 164.046875 492.597656 163.566406 493 163.164062 C 493.402344 162.761719 493.882812 162.5 494.4375 162.378906 C 496.585938 160.722656 502.574219 162.925781 504.808594 163.859375 C 510.746094 166.328125 515.707031 168.679688 520.742188 172.011719 C 523.160156 173.582031 525.601562 176.710938 528.519531 177.570312 L 531.847656 177.570312 C 537.0625 178.769531 542.902344 177.945312 547.773438 179.421875 C 556.386719 182.039062 564.101562 186.113281 571.109375 190.535156 C 592.464844 204.019531 609.917969 223.210938 621.859375 246.132812 C 623.78125 249.816406 624.613281 253.339844 626.304688 257.246094 C 629.71875 265.097656 634.019531 273.242188 637.417969 280.953125 C 640.808594 288.648438 644.109375 296.40625 648.902344 302.804688 C 651.421875 306.167969 661.152344 307.976562 665.570312 309.84375 C 668.671875 311.152344 673.746094 312.519531 676.683594 314.285156 C 682.289062 317.667969 687.722656 321.699219 692.984375 325.40625 C 695.613281 327.257812 703.695312 331.320312 704.097656 334.667969 Z M 704.089844 334.566406 " fill-opacity="1" fill-rule="nonzero"/><path fill="#1a100b" d="M 538.527344 193.433594 C 535.808594 193.382812 533.890625 193.726562 531.855469 194.171875 L 531.855469 194.542969 L 532.226562 194.542969 C 533.523438 197.207031 535.808594 198.921875 537.410156 201.210938 L 541.117188 208.988281 L 541.488281 208.621094 C 543.78125 207 544.832031 204.417969 544.816406 200.46875 C 543.898438 199.5 543.761719 198.289062 542.964844 197.132812 C 541.90625 195.59375 539.824219 194.71875 538.519531 193.425781 Z M 538.527344 193.433594 " fill-opacity="1" fill-rule="evenodd"/><path fill="#1a100b" d="M 695.421875 441.292969 C 695.421875 450.621094 702.792969 456.910156 711.039062 456.910156 C 719.28125 456.910156 726.65625 450.621094 726.65625 441.292969 C 726.65625 431.960938 719.28125 425.675781 711.039062 425.675781 C 702.792969 425.675781 695.421875 431.960938 695.421875 441.292969 Z M 723.15625 441.292969 C 723.15625 448.371094 717.742188 453.660156 711.03125 453.660156 C 704.246094 453.660156 698.90625 448.371094 698.90625 441.292969 C 698.90625 434.210938 704.238281 428.921875 711.03125 428.921875 C 717.738281 428.921875 723.15625 434.210938 723.15625 441.292969 Z M 715.238281 450.207031 L 718.734375 450.207031 L 713.617188 442.378906 C 716.363281 442.085938 718.445312 440.75 718.445312 437.503906 C 718.445312 433.878906 716.152344 432.382812 711.742188 432.382812 L 704.785156 432.382812 L 704.785156 450.210938 L 707.785156 450.210938 L 707.785156 442.503906 L 710.574219 442.503906 L 715.238281 450.210938 Z M 707.785156 439.996094 L 707.785156 434.878906 L 711.238281 434.878906 C 713.027344 434.878906 715.195312 435.210938 715.195312 437.296875 C 715.195312 439.792969 713.238281 440.003906 710.988281 440.003906 L 707.785156 440.003906 Z M 707.785156 439.996094 " fill-opacity="1" fill-rule="evenodd"/></svg>