<svg xmlns="http://www.w3.org/2000/svg" xmlns:xlink="http://www.w3.org/1999/xlink" width="500" zoomAndPan="magnify" viewBox="0 0 375 374.999991" height="500" preserveAspectRatio="xMidYMid meet" version="1.2"><defs><clipPath id="43c267783e"><path d="M 375 75 L 375 300 C 375 341.421875 341.421875 375 300 375 L 75 375 C 33.578125 375 0 341.421875 0 300 L 0 75 C 0 33.578125 33.578125 0 75 0 L 300 0 C 341.421875 0 375 33.578125 375 75 Z M 375 75 "/></clipPath><clipPath id="e0954dcb6f"><path d="M 111 22 L 270 22 L 270 256 L 111 256 Z M 111 22 "/></clipPath><clipPath id="c58a80de98"><path d="M 304.183594 48.085938 L 192.605469 292.5625 L 84.183594 243.078125 L 195.765625 -1.398438 Z M 304.183594 48.085938 "/></clipPath><clipPath id="73e6eae6c4"><path d="M 304.183594 48.085938 L 192.605469 292.5625 L 84.183594 243.078125 L 195.765625 -1.398438 Z M 304.183594 48.085938 "/></clipPath><clipPath id="6ff03bbc8e"><path d="M 92 207 L 276 207 L 276 361 L 92 361 Z M 92 207 "/></clipPath><clipPath id="331062e68a"><path d="M 0 171.582031 L 291.175781 87.722656 L 375.035156 378.894531 L 83.863281 462.757812 Z M 0 171.582031 "/></clipPath><clipPath id="8c0141cb13"><path d="M 0 171.582031 L 291.175781 87.722656 L 375.035156 378.894531 L 83.863281 462.757812 Z M 0 171.582031 "/></clipPath></defs><g id="2eda0b35f4"><g clip-rule="nonzero" clip-path="url(#43c267783e)"><rect x="0" width="375" y="0" height="374.999991" style="fill:#ffffff;fill-opacity:1;stroke:none;"/></g><g clip-rule="nonzero" clip-path="url(#e0954dcb6f)"><g clip-rule="nonzero" clip-path="url(#c58a80de98)"><g clip-rule="nonzero" clip-path="url(#73e6eae6c4)"><path style=" stroke:none;fill-rule:nonzero;fill:#193948;fill-opacity:1;" d="M 214.390625 225.683594 C 214.753906 225.578125 215.054688 225.320312 215.222656 224.972656 C 215.394531 224.625 215.390625 224.230469 215.242188 223.882812 L 185.839844 154.820312 L 268.746094 124.304688 C 269.1875 124.140625 269.507812 123.753906 269.59375 123.296875 C 269.675781 122.828125 269.511719 122.359375 269.152344 122.050781 L 209.566406 70.8125 L 248.242188 24.546875 C 248.644531 24.058594 248.65625 23.347656 248.253906 22.855469 C 247.851562 22.359375 247.152344 22.222656 246.59375 22.523438 L 165.738281 65.640625 C 165.480469 65.777344 165.277344 66 165.15625 66.257812 C 165.109375 66.367188 165.070312 66.484375 165.054688 66.597656 C 164.992188 67.007812 165.121094 67.425781 165.40625 67.734375 L 205.886719 109.871094 L 131.507812 147.96875 C 130.867188 148.292969 130.605469 149.0625 130.902344 149.710938 L 157.34375 206.941406 L 111.789062 253.15625 C 111.363281 253.589844 111.28125 254.253906 111.59375 254.769531 C 111.902344 255.292969 112.53125 255.535156 113.105469 255.367188 Z M 214.390625 225.683594 "/></g></g></g><g clip-rule="nonzero" clip-path="url(#6ff03bbc8e)"><g clip-rule="nonzero" clip-path="url(#331062e68a)"><g clip-rule="nonzero" clip-path="url(#8c0141cb13)"><path style=" stroke:none;fill-rule:nonzero;fill:#fac517;fill-opacity:1;" d="M 198.222656 341.613281 C 215.175781 336.730469 228.609375 332.707031 238.710938 329.636719 L 264.070312 322.335938 C 270.585938 320.457031 274.207031 317.214844 274.957031 312.765625 C 275.675781 308.164062 275.691406 304.398438 274.816406 301.351562 L 253.699219 228.035156 C 252.824219 224.996094 250.84375 221.957031 247.789062 218.4375 C 244.789062 215.074219 240.042969 214.398438 233.5625 216.417969 C 227.183594 218.253906 220.816406 220.089844 214.394531 221.789062 C 208.015625 223.625 201.601562 225.308594 195.226562 227.144531 C 194.761719 223.359375 193.324219 218.90625 190.871094 213.652344 C 188.558594 208.355469 185.160156 206.355469 180.667969 207.648438 L 144.011719 218.207031 C 140.683594 219.167969 138.925781 221.238281 138.636719 224.613281 C 138.503906 227.953125 138.84375 231.308594 139.757812 234.492188 L 142.054688 242.457031 C 135.675781 244.292969 129.351562 246.277344 122.96875 248.117188 C 116.636719 250.089844 110.265625 251.925781 103.890625 253.761719 C 97.613281 255.417969 94.105469 258.46875 93.050781 263.003906 C 92.191406 267.644531 92.140625 271.269531 93.015625 274.3125 L 114.257812 348.0625 C 115.089844 350.964844 117.105469 354.144531 120.078125 357.371094 C 123.230469 360.695312 128.019531 361.515625 134.394531 359.679688 L 153.515625 354.171875 C 159.9375 352.480469 166.304688 350.644531 172.683594 348.808594 C 172.871094 348.914062 181.464844 346.597656 198.222656 341.613281 Z M 147.390625 231.042969 C 146.925781 227.25 148.171875 225.011719 151.210938 224.136719 C 155.703125 222.84375 159.761719 221.675781 163.335938 220.484375 C 166.960938 219.441406 171.84375 217.882812 178.082031 216.085938 C 180.539062 215.378906 182.46875 216.078125 183.964844 218.003906 C 185.414062 219.78125 186.480469 221.824219 187.023438 223.707031 C 187.605469 225.738281 187.917969 227.375 188.191406 228.859375 L 149.648438 239.960938 C 148.648438 237.582031 147.8125 234.683594 147.390625 231.042969 Z M 147.390625 231.042969 "/></g></g></g></g></svg>