<svg xmlns="http://www.w3.org/2000/svg" xmlns:xlink="http://www.w3.org/1999/xlink" width="500" zoomAndPan="magnify" viewBox="0 0 375 374.999991" height="500" preserveAspectRatio="xMidYMid meet" version="1.2"><defs><filter x="0%" y="0%" width="100%" filterUnits="objectBoundingBox" id="d770edf971" height="100%"><feColorMatrix values="0 0 0 0 1 0 0 0 0 1 0 0 0 0 1 0 0 0 1 0" type="matrix" in="SourceGraphic"/></filter><clipPath id="9d93b78d0e"><path d="M 0.441406 1 L 29 1 L 29 68 L 0.441406 68 Z M 0.441406 1 "/></clipPath><clipPath id="ed196962a8"><rect x="0" width="29" y="0" height="68"/></clipPath></defs><g id="120557bebb"><path style=" stroke:none;fill-rule:nonzero;fill:#fcdc73;fill-opacity:1;" d="M 240 278.144531 C 226.09375 281.046875 211.71875 282.445312 197.109375 283.054688 C 160.023438 284.597656 121.046875 281.332031 85.503906 270.464844 C 38.191406 255.996094 18.464844 198.429688 49.113281 158.785156 C 58.042969 147.242188 69.871094 140.484375 81.332031 131.9375 C 94.820312 121.875 107.175781 110.285156 116.679688 96.3125 C 124.980469 84.113281 130.453125 70.148438 139.519531 58.46875 C 149.539062 45.566406 164.515625 37.519531 180.53125 34.964844 C 238.027344 25.785156 301.699219 58.960938 336.5 103.785156 C 374.835938 153.160156 342.136719 220.375 297.851562 253.128906 C 280.074219 266.28125 260.539062 273.859375 240 278.144531 Z M 240 278.144531 "/><path style=" stroke:none;fill-rule:nonzero;fill:#fcdc73;fill-opacity:1;" d="M 22.390625 201.753906 C 20.949219 201.753906 19.726562 200.648438 19.605469 199.1875 C 17.214844 170.046875 31.359375 146.300781 61.652344 128.632812 C 89.109375 112.613281 107.859375 82.132812 108.050781 81.820312 C 108.855469 80.503906 110.570312 80.078125 111.894531 80.878906 C 113.210938 81.683594 113.632812 83.402344 112.835938 84.722656 C 112.050781 86.019531 93.183594 116.714844 64.480469 133.460938 C 36.207031 149.957031 22.984375 171.910156 25.195312 198.730469 C 25.324219 200.273438 24.171875 201.617188 22.636719 201.742188 C 22.546875 201.753906 22.472656 201.753906 22.390625 201.753906 Z M 22.390625 201.753906 "/><path style=" stroke:none;fill-rule:nonzero;fill:#4fadc0;fill-opacity:1;" d="M 107.660156 334.40625 C 107.660156 334.40625 108.761719 342.625 109.851562 343.867188 C 113.492188 348.058594 121.703125 346.644531 125.777344 344.113281 C 128.351562 342.515625 125.960938 336.992188 125.960938 336.992188 Z M 107.660156 334.40625 "/><path style=" stroke:none;fill-rule:nonzero;fill:#193948;fill-opacity:1;" d="M 120.609375 325.96875 C 120.609375 325.96875 123.148438 331.574219 123.546875 332.167969 C 123.960938 332.761719 130.871094 341.246094 121.6875 343.117188 C 112.5 344.988281 110.425781 343.675781 108.253906 337.464844 C 107 333.875 108.363281 326.910156 108.363281 326.910156 C 108.363281 326.910156 108.863281 328.980469 112.023438 329.027344 C 117.566406 329.101562 119.996094 327.976562 120.609375 325.96875 Z M 120.609375 325.96875 "/><path style=" stroke:none;fill-rule:nonzero;fill:#ffffff;fill-opacity:1;" d="M 119.574219 330.125 L 112.5625 331.109375 C 112.296875 331.144531 112.058594 330.964844 112.023438 330.699219 C 111.988281 330.433594 112.171875 330.195312 112.433594 330.160156 L 119.449219 329.171875 C 119.714844 329.136719 119.949219 329.320312 119.988281 329.585938 C 120.023438 329.847656 119.839844 330.085938 119.574219 330.125 Z M 119.574219 330.125 "/><path style=" stroke:none;fill-rule:nonzero;fill:#ffffff;fill-opacity:1;" d="M 120.015625 332.023438 L 113 333.007812 C 112.734375 333.046875 112.5 332.863281 112.460938 332.597656 C 112.425781 332.332031 112.609375 332.09375 112.875 332.058594 L 119.886719 331.074219 C 120.152344 331.035156 120.390625 331.21875 120.425781 331.484375 C 120.460938 331.738281 120.277344 331.984375 120.015625 332.023438 Z M 120.015625 332.023438 "/><path style=" stroke:none;fill-rule:nonzero;fill:#ffffff;fill-opacity:1;" d="M 120.5 334.25 L 113.484375 335.238281 C 113.21875 335.273438 112.984375 335.089844 112.945312 334.824219 C 112.910156 334.5625 113.09375 334.324219 113.355469 334.289062 L 120.371094 333.300781 C 120.636719 333.265625 120.871094 333.445312 120.910156 333.710938 C 120.945312 333.976562 120.761719 334.214844 120.5 334.25 Z M 120.5 334.25 "/><path style=" stroke:none;fill-rule:nonzero;fill:#193948;fill-opacity:1;" d="M 107.210938 238.949219 C 103.375 222.773438 102.207031 206.300781 102.207031 206.300781 L 87.15625 194.539062 L 54.308594 206.539062 C 53.214844 221.195312 54.042969 286.875 54 295.90625 C 53.953125 304.9375 53.898438 326.324219 53.898438 326.324219 C 53.898438 326.324219 64.738281 328.734375 69.066406 325.082031 C 69.066406 325.082031 71.25 309.320312 71.777344 301.949219 C 73.570312 276.820312 78.199219 234.4375 78.199219 234.4375 C 78.199219 234.4375 85.257812 254.546875 91.304688 270.453125 L 105.539062 324.304688 C 118.917969 325.601562 122.71875 322.160156 122.71875 322.160156 C 122.71875 322.160156 109.796875 249.832031 107.210938 238.949219 Z M 107.210938 238.949219 "/><path style=" stroke:none;fill-rule:nonzero;fill:#fcdc73;fill-opacity:1;" d="M 78.199219 234.65625 C 78.097656 234.65625 78.007812 234.582031 77.988281 234.480469 L 76.023438 224.4375 C 76.007812 224.316406 76.078125 224.207031 76.1875 224.191406 C 76.308594 224.171875 76.417969 224.246094 76.4375 224.355469 L 78.398438 234.398438 C 78.417969 234.519531 78.34375 234.628906 78.234375 234.648438 C 78.226562 234.65625 78.214844 234.65625 78.199219 234.65625 Z M 78.199219 234.65625 "/><path style=" stroke:none;fill-rule:nonzero;fill:#fcdc73;fill-opacity:1;" d="M 77.222656 229.632812 C 77.195312 229.632812 77.167969 229.625 77.140625 229.613281 C 76.984375 229.550781 73.414062 228.070312 71.898438 226.820312 C 71.804688 226.746094 71.796875 226.609375 71.871094 226.519531 C 71.941406 226.429688 72.078125 226.417969 72.171875 226.492188 C 73.640625 227.695312 77.265625 229.203125 77.304688 229.222656 C 77.414062 229.269531 77.457031 229.386719 77.421875 229.496094 C 77.386719 229.585938 77.304688 229.632812 77.222656 229.632812 Z M 77.222656 229.632812 "/><path style=" stroke:none;fill-rule:nonzero;fill:#4fadc0;fill-opacity:1;" d="M 36.292969 341.355469 C 36.292969 341.355469 35.433594 346.296875 41.25 346.890625 C 47.066406 347.484375 51.148438 347.164062 54.152344 346.515625 C 57.15625 345.859375 58.847656 344.917969 62.007812 345.183594 C 65.167969 345.445312 68.398438 346.761719 69.988281 345.15625 C 71.292969 343.839844 70.097656 340.242188 70.097656 340.242188 L 52.683594 340.324219 Z M 36.292969 341.355469 "/><path style=" stroke:none;fill-rule:nonzero;fill:#193948;fill-opacity:1;" d="M 54.710938 330.734375 C 54.710938 330.734375 47.808594 335.65625 44.410156 337.335938 C 41.011719 339.007812 36.601562 337.847656 36.300781 341.355469 C 36 344.863281 45.585938 344.09375 51.203125 343.574219 C 56.820312 343.054688 60.757812 340.863281 63.695312 341.738281 C 66.636719 342.605469 69.90625 341.210938 70.117188 340.242188 C 70.328125 339.273438 68.910156 330.742188 68.164062 329.929688 C 68.164062 329.929688 67.75 331.613281 62.21875 331.757812 C 56.683594 331.894531 54.710938 330.734375 54.710938 330.734375 Z M 54.710938 330.734375 "/><path style=" stroke:none;fill-rule:nonzero;fill:#ffffff;fill-opacity:1;" d="M 48.273438 337.859375 L 48.191406 337.914062 C 48.027344 338.011719 47.824219 337.957031 47.722656 337.792969 L 46.675781 336.011719 C 46.582031 335.847656 46.628906 335.640625 46.792969 335.546875 L 46.875 335.492188 C 47.039062 335.390625 47.242188 335.445312 47.339844 335.613281 L 48.390625 337.390625 C 48.492188 337.546875 48.4375 337.757812 48.273438 337.859375 Z M 48.273438 337.859375 "/><path style=" stroke:none;fill-rule:nonzero;fill:#ffffff;fill-opacity:1;" d="M 49.84375 336.742188 L 49.761719 336.796875 C 49.597656 336.898438 49.394531 336.84375 49.296875 336.679688 L 48.246094 334.898438 C 48.152344 334.734375 48.199219 334.523438 48.363281 334.433594 L 48.445312 334.378906 C 48.609375 334.277344 48.8125 334.332031 48.910156 334.496094 L 49.960938 336.277344 C 50.054688 336.441406 50 336.652344 49.84375 336.742188 Z M 49.84375 336.742188 "/><path style=" stroke:none;fill-rule:nonzero;fill:#ffffff;fill-opacity:1;" d="M 51.667969 335.566406 L 51.585938 335.621094 C 51.421875 335.722656 51.222656 335.667969 51.121094 335.5 L 50.070312 333.722656 C 49.980469 333.558594 50.027344 333.347656 50.191406 333.253906 L 50.273438 333.199219 C 50.4375 333.101562 50.636719 333.15625 50.738281 333.320312 L 51.789062 335.101562 C 51.878906 335.265625 51.832031 335.472656 51.667969 335.566406 Z M 51.667969 335.566406 "/><path style=" stroke:none;fill-rule:nonzero;fill:#ffffff;fill-opacity:1;" d="M 53.476562 334.40625 L 53.394531 334.460938 C 53.230469 334.5625 53.03125 334.507812 52.929688 334.34375 L 51.878906 332.5625 C 51.789062 332.398438 51.832031 332.1875 52 332.09375 L 52.082031 332.039062 C 52.246094 331.941406 52.445312 331.996094 52.546875 332.160156 L 53.597656 333.941406 C 53.6875 334.09375 53.632812 334.304688 53.476562 334.40625 Z M 53.476562 334.40625 "/><path style=" stroke:none;fill-rule:nonzero;fill:#e76268;fill-opacity:1;" d="M 69.277344 171.132812 C 58.683594 172.792969 40.527344 177.234375 40.527344 177.234375 C 41.242188 166.394531 42.546875 157.808594 44.152344 151.023438 C 49.871094 126.859375 61.058594 125.363281 61.058594 125.363281 L 69.339844 129.5625 L 78.9375 133.636719 C 78.9375 133.636719 79.871094 169.472656 69.277344 171.132812 Z M 69.277344 171.132812 "/><path style=" stroke:none;fill-rule:nonzero;fill:#e76268;fill-opacity:1;" d="M 57.386719 173.316406 C 57.386719 173.316406 62.0625 186.429688 52.910156 187.816406 C 49.570312 188.328125 33.671875 175.480469 33.671875 175.480469 L 44.179688 168.839844 Z M 57.386719 173.316406 "/><path style=" stroke:none;fill-rule:nonzero;fill:#4fadc0;fill-opacity:1;" d="M 69.339844 129.5625 C 68.644531 138.621094 66.839844 150.203125 62.144531 151.207031 C 56.316406 152.449219 47.972656 151.554688 44.144531 151.023438 C 49.863281 126.859375 59.898438 125.171875 59.898438 125.171875 Z M 69.339844 129.5625 "/><path style=" stroke:none;fill-rule:nonzero;fill:#193948;fill-opacity:1;" d="M 55.707031 151.929688 C 55.707031 151.929688 55.695312 151.929688 55.707031 151.929688 C 55.632812 151.929688 55.585938 151.875 55.585938 151.808594 C 55.585938 151.734375 56.035156 144.914062 56.957031 141.226562 C 56.976562 141.160156 57.039062 141.125 57.09375 141.144531 C 57.15625 141.160156 57.195312 141.226562 57.175781 141.28125 C 56.253906 144.960938 55.816406 151.753906 55.816406 151.828125 C 55.816406 151.875 55.769531 151.929688 55.707031 151.929688 Z M 55.707031 151.929688 "/><path style=" stroke:none;fill-rule:nonzero;fill:#e76268;fill-opacity:1;" d="M 64.199219 132.183594 C 64.234375 132.082031 73.25 141.636719 79.128906 139.710938 C 85.703125 137.542969 88.644531 124.148438 88.644531 124.148438 L 87.605469 110.695312 L 87.59375 110.476562 L 87.578125 109.671875 L 86.28125 110.148438 L 81.121094 112.03125 L 79.046875 112.789062 L 73.75 114.714844 C 73.75 114.714844 73.660156 118.195312 73.003906 121.015625 C 72.929688 121.316406 72.867188 121.589844 72.792969 121.863281 C 72.644531 122.332031 72.425781 122.769531 72.179688 123.132812 C 71.613281 124.019531 70.910156 124.585938 70.910156 124.59375 C 69.578125 127.398438 64.246094 132.183594 64.199219 132.183594 Z M 64.199219 132.183594 "/><path style=" stroke:none;fill-rule:nonzero;fill:#e76268;fill-opacity:1;" d="M 66.199219 106.734375 C 67.859375 114.039062 70.800781 121.355469 77.878906 120.265625 C 82.828125 119.5 87.59375 112.640625 88.664062 106.347656 C 89.210938 103.097656 89.722656 100.265625 89.714844 98.128906 C 89.703125 96.441406 89.621094 95.382812 89.621094 95.382812 L 88.40625 91.710938 L 87.6875 89.566406 C 87.6875 89.566406 86.097656 88.277344 84.316406 86.824219 C 82.097656 85.007812 78.683594 87.636719 78.628906 87.511719 C 78.535156 87.316406 68.589844 85.929688 65.46875 89.910156 C 65.460938 89.921875 65.449219 89.929688 65.449219 89.9375 C 65.167969 90.304688 64.949219 90.667969 64.8125 91.042969 C 64.691406 91.355469 64.636719 91.675781 64.636719 91.992188 C 64.636719 92.605469 64.664062 93.527344 64.699219 94.6875 C 64.730469 95.171875 64.746094 95.703125 64.785156 96.265625 C 64.839844 97.21875 64.921875 98.257812 65.03125 99.355469 C 65.25 101.644531 65.613281 104.203125 66.199219 106.734375 Z M 66.199219 106.734375 "/><path style=" stroke:none;fill-rule:nonzero;fill:#193948;fill-opacity:1;" d="M 67.058594 110.085938 C 68.582031 116.761719 71.421875 120.914062 77.953125 120.265625 C 84.199219 119.65625 87.484375 112.980469 88.464844 107.226562 C 87.933594 105.867188 87.386719 102.496094 87.386719 102.496094 C 87.386719 102.496094 85.789062 100.011719 85.804688 100.101562 C 86.015625 101.136719 85.941406 108.183594 82.910156 109.0625 C 79.613281 110.019531 78.4375 110.871094 77.175781 110.851562 C 75.914062 110.832031 75.539062 110.394531 74.4375 110.667969 C 73.320312 110.941406 72.5625 111.527344 71.066406 111.273438 C 69.660156 111.042969 68.105469 112.039062 67.058594 110.085938 Z M 67.058594 110.085938 "/><path style=" stroke:none;fill-rule:nonzero;fill:#193948;fill-opacity:1;" d="M 90.042969 98.046875 C 90.042969 98.046875 91.230469 82.050781 81.90625 82.050781 C 81.90625 82.050781 74.644531 78.652344 66.617188 83.28125 C 61.339844 86.324219 63.25 92.707031 63.777344 94.917969 C 64.109375 96.304688 64.671875 97.453125 64.855469 97.382812 C 65.367188 97.171875 65.421875 95.785156 67.292969 96.210938 C 74.882812 97.949219 79.640625 92.257812 81.769531 93.5 C 83.898438 94.742188 88.472656 107.226562 88.472656 107.226562 C 88.472656 107.226562 88.855469 101.328125 90.042969 98.046875 Z M 90.042969 98.046875 "/><path style=" stroke:none;fill-rule:nonzero;fill:#e76268;fill-opacity:1;" d="M 88.199219 99.4375 C 88.199219 99.4375 92.398438 96.421875 92.453125 100.789062 C 92.507812 105.152344 88.453125 107.234375 88.453125 107.234375 Z M 88.199219 99.4375 "/><path style=" stroke:none;fill-rule:nonzero;fill:#193948;fill-opacity:1;" d="M 89.320312 100.789062 C 89.320312 100.789062 92.664062 99.609375 89.457031 104.449219 Z M 89.320312 100.789062 "/><path style=" stroke:none;fill-rule:nonzero;fill:#193948;fill-opacity:1;" d="M 70.734375 104.585938 C 70.824219 104.902344 70.835938 105.191406 70.769531 105.449219 C 70.703125 105.710938 70.578125 105.867188 70.394531 105.921875 C 70.210938 105.972656 70.023438 105.90625 69.828125 105.722656 C 69.632812 105.535156 69.492188 105.285156 69.402344 104.96875 C 69.308594 104.65625 69.296875 104.367188 69.363281 104.109375 C 69.429688 103.847656 69.554688 103.691406 69.738281 103.636719 C 69.925781 103.585938 70.113281 103.652344 70.308594 103.835938 C 70.5 104.023438 70.644531 104.273438 70.734375 104.585938 Z M 70.734375 104.585938 "/><path style=" stroke:none;fill-rule:nonzero;fill:#193948;fill-opacity:1;" d="M 78.796875 103.261719 C 78.886719 103.578125 78.902344 103.867188 78.835938 104.125 C 78.769531 104.386719 78.640625 104.542969 78.457031 104.59375 C 78.273438 104.648438 78.085938 104.582031 77.890625 104.394531 C 77.695312 104.210938 77.554688 103.960938 77.464844 103.644531 C 77.375 103.332031 77.359375 103.042969 77.425781 102.78125 C 77.492188 102.523438 77.617188 102.367188 77.804688 102.3125 C 77.988281 102.261719 78.175781 102.328125 78.371094 102.511719 C 78.566406 102.695312 78.707031 102.949219 78.796875 103.261719 Z M 78.796875 103.261719 "/><path style=" stroke:none;fill-rule:nonzero;fill:#193948;fill-opacity:1;" d="M 71.066406 102.503906 C 71.066406 102.503906 68.976562 101.144531 67.320312 102.167969 Z M 71.066406 102.503906 "/><path style=" stroke:none;fill-rule:nonzero;fill:#193948;fill-opacity:1;" d="M 80.699219 100.167969 C 80.535156 100.15625 77.953125 99.875 76.535156 101.617188 Z M 80.699219 100.167969 "/><path style=" stroke:none;fill-rule:nonzero;fill:#193948;fill-opacity:1;" d="M 74.097656 108.101562 C 73.585938 108.101562 73.359375 107.867188 73.257812 107.683594 C 72.957031 107.144531 73.285156 106.304688 73.761719 105.9375 C 73.816406 105.894531 73.886719 105.910156 73.933594 105.964844 C 73.96875 106.019531 73.960938 106.09375 73.90625 106.140625 C 73.476562 106.46875 73.257812 107.179688 73.46875 107.5625 C 73.667969 107.929688 74.226562 107.957031 75.03125 107.644531 C 75.09375 107.617188 75.167969 107.65625 75.183594 107.71875 C 75.210938 107.78125 75.175781 107.855469 75.113281 107.875 C 74.691406 108.039062 74.363281 108.101562 74.097656 108.101562 Z M 74.097656 108.101562 "/><path style=" stroke:none;fill-rule:nonzero;fill:#ffffff;fill-opacity:1;" d="M 73.046875 114.402344 C 73.046875 114.402344 73.148438 114.578125 73.375 114.789062 C 73.769531 115.171875 74.535156 115.691406 75.695312 115.554688 C 76.835938 115.417969 77.558594 114.679688 77.933594 114.167969 C 78.132812 113.875 78.234375 113.664062 78.234375 113.664062 Z M 73.046875 114.402344 "/><path style=" stroke:none;fill-rule:nonzero;fill:#4fadc0;fill-opacity:1;" d="M 109.300781 130.46875 C 102.515625 143.371094 101.359375 185.925781 103.011719 208.4375 C 88.117188 211.953125 66.710938 213.699219 54.027344 210.191406 C 55.859375 186.144531 52.910156 146.46875 59.898438 125.171875 C 59.898438 125.171875 67.851562 122.878906 73.074219 122.667969 C 68.671875 128.632812 85.175781 130.25 88.664062 122.667969 C 88.664062 122.667969 105.484375 126.167969 109.300781 130.46875 Z M 109.300781 130.46875 "/><path style=" stroke:none;fill-rule:nonzero;fill:#193948;fill-opacity:1;" d="M 55.707031 151.929688 C 55.707031 151.929688 55.695312 151.929688 55.707031 151.929688 C 55.632812 151.929688 55.585938 151.875 55.585938 151.808594 C 55.585938 151.734375 56.035156 144.914062 56.957031 141.226562 C 56.976562 141.160156 57.039062 141.125 57.09375 141.144531 C 57.15625 141.160156 57.195312 141.226562 57.175781 141.28125 C 56.253906 144.960938 55.816406 151.753906 55.816406 151.828125 C 55.816406 151.875 55.769531 151.929688 55.707031 151.929688 Z M 55.707031 151.929688 "/><path style=" stroke:none;fill-rule:nonzero;fill:#e76268;fill-opacity:1;" d="M 130.910156 176.628906 C 132.992188 184.929688 125.757812 188.375 110.144531 182.546875 C 102.765625 179.800781 97.441406 178.832031 95.703125 177.269531 L 96.664062 168.703125 C 97.960938 169.097656 106.105469 169.296875 113.429688 170.257812 L 107.101562 156.257812 C 108.828125 156.121094 115.464844 154.558594 121.238281 149.207031 C 126.542969 160.785156 129.121094 169.507812 130.910156 176.628906 Z M 130.910156 176.628906 "/><path style=" stroke:none;fill-rule:nonzero;fill:#4fadc0;fill-opacity:1;" d="M 108.398438 129.664062 C 108.398438 129.664062 113.203125 132.066406 117.4375 139.261719 C 121.273438 145.78125 125.136719 153.835938 124.34375 154.757812 C 119.457031 160.492188 108.179688 161.167969 108.179688 161.167969 L 103.054688 151.515625 Z M 108.398438 129.664062 "/><path style=" stroke:none;fill-rule:nonzero;fill:#193948;fill-opacity:1;" d="M 127.683594 174.730469 C 127.648438 174.730469 127.613281 174.710938 127.59375 174.683594 C 124.214844 170.019531 113.53125 170.355469 113.429688 170.367188 C 113.367188 170.367188 113.320312 170.320312 113.3125 170.257812 C 113.3125 170.191406 113.355469 170.136719 113.421875 170.136719 C 113.449219 170.136719 116.167969 170.046875 119.285156 170.53125 C 122.167969 170.988281 125.976562 172.054688 127.785156 174.546875 C 127.824219 174.601562 127.8125 174.675781 127.757812 174.710938 C 127.738281 174.722656 127.710938 174.730469 127.683594 174.730469 Z M 127.683594 174.730469 "/><path style=" stroke:none;fill-rule:nonzero;fill:#e76268;fill-opacity:1;" d="M 85.980469 177.734375 C 86.9375 177.105469 88.105469 176.859375 92.078125 177.433594 C 94.472656 177.78125 98.296875 176.902344 99.339844 176.675781 L 98.957031 169.304688 C 97.414062 168.90625 94.902344 167.25 93.027344 166.367188 C 90.683594 165.261719 88.105469 163.371094 86.132812 164.046875 C 82.78125 165.179688 78.800781 167.160156 79.292969 168.410156 C 79.804688 169.664062 83.75 168.429688 83.75 168.429688 C 83.75 168.429688 81.722656 169.542969 81.980469 170.894531 C 82.234375 172.246094 84.015625 172.695312 84.015625 172.695312 C 83.058594 174.101562 84.78125 175.40625 84.78125 175.40625 C 83.996094 176.675781 85.210938 178.226562 85.980469 177.734375 Z M 85.980469 177.734375 "/><path style=" stroke:none;fill-rule:nonzero;fill:#193948;fill-opacity:1;" d="M 84.792969 175.523438 C 84.753906 175.523438 84.726562 175.507812 84.699219 175.480469 C 84.664062 175.433594 84.664062 175.359375 84.71875 175.316406 C 84.78125 175.269531 86.214844 174.082031 88.472656 173.945312 C 88.472656 173.945312 88.472656 173.945312 88.480469 173.945312 C 88.546875 173.945312 88.589844 173.992188 88.601562 174.054688 C 88.601562 174.117188 88.554688 174.171875 88.492188 174.171875 C 86.316406 174.3125 84.882812 175.480469 84.875 175.488281 C 84.847656 175.515625 84.820312 175.523438 84.792969 175.523438 Z M 84.792969 175.523438 "/><path style=" stroke:none;fill-rule:nonzero;fill:#193948;fill-opacity:1;" d="M 84.023438 172.8125 C 83.988281 172.8125 83.960938 172.804688 83.941406 172.777344 C 83.898438 172.730469 83.90625 172.65625 83.953125 172.613281 C 84.023438 172.546875 85.824219 170.976562 87.953125 170.628906 C 88.015625 170.613281 88.070312 170.65625 88.089844 170.722656 C 88.097656 170.785156 88.050781 170.839844 87.996094 170.859375 C 85.933594 171.195312 84.125 172.777344 84.105469 172.785156 C 84.078125 172.804688 84.050781 172.8125 84.023438 172.8125 Z M 84.023438 172.8125 "/><path style=" stroke:none;fill-rule:nonzero;fill:#193948;fill-opacity:1;" d="M 83.761719 168.546875 C 83.722656 168.546875 83.675781 168.53125 83.660156 168.492188 C 83.632812 168.4375 83.648438 168.367188 83.707031 168.339844 C 83.722656 168.328125 85.578125 167.296875 87.796875 167.296875 C 87.871094 167.296875 87.953125 167.332031 87.941406 167.414062 C 87.941406 167.480469 87.886719 167.535156 87.824219 167.535156 C 87.816406 167.535156 87.796875 167.535156 87.789062 167.535156 C 85.632812 167.535156 83.832031 168.53125 83.816406 168.539062 C 83.796875 168.539062 83.777344 168.546875 83.761719 168.546875 Z M 83.761719 168.546875 "/><path style=" stroke:none;fill-rule:nonzero;fill:#193948;fill-opacity:1;" d="M 93.148438 178.503906 L 61.003906 178.503906 L 61.003906 175.890625 L 90.855469 175.890625 C 92.117188 175.890625 93.136719 176.914062 93.136719 178.171875 L 93.136719 178.503906 Z M 93.148438 178.503906 "/><path style=" stroke:none;fill-rule:nonzero;fill:#193948;fill-opacity:1;" d="M 27.644531 178.503906 L 81.441406 178.503906 L 76.023438 143.765625 L 22.226562 143.765625 Z M 27.644531 178.503906 "/><path style=" stroke:none;fill-rule:nonzero;fill:#ffffff;fill-opacity:1;" d="M 54.726562 161.839844 C 54.824219 162.371094 54.824219 162.898438 54.726562 163.425781 C 54.628906 163.953125 54.441406 164.4375 54.164062 164.875 C 53.882812 165.316406 53.539062 165.679688 53.121094 165.964844 C 52.707031 166.253906 52.25 166.441406 51.761719 166.53125 C 51.269531 166.621094 50.78125 166.605469 50.289062 166.484375 C 49.796875 166.363281 49.34375 166.148438 48.929688 165.835938 C 48.511719 165.519531 48.164062 165.136719 47.886719 164.679688 C 47.609375 164.222656 47.421875 163.726562 47.324219 163.195312 C 47.226562 162.660156 47.226562 162.132812 47.324219 161.605469 C 47.421875 161.078125 47.609375 160.597656 47.890625 160.15625 C 48.167969 159.714844 48.515625 159.351562 48.929688 159.066406 C 49.347656 158.777344 49.800781 158.589844 50.289062 158.5 C 50.78125 158.410156 51.273438 158.425781 51.761719 158.546875 C 52.253906 158.667969 52.707031 158.882812 53.121094 159.199219 C 53.539062 159.511719 53.886719 159.894531 54.164062 160.351562 C 54.441406 160.8125 54.628906 161.304688 54.726562 161.839844 Z M 54.726562 161.839844 "/><path style=" stroke:none;fill-rule:nonzero;fill:#e76268;fill-opacity:1;" d="M 36.941406 178.476562 C 36.941406 178.476562 37.386719 178.265625 37.175781 176.246094 C 36.96875 174.238281 37.585938 172.265625 39.523438 172.484375 C 39.523438 172.484375 41.175781 170.484375 42.902344 172.464844 C 42.902344 172.464844 44.902344 171.5625 46.21875 173.222656 C 46.21875 173.222656 47.871094 172.300781 48.703125 173.527344 C 49.53125 174.75 49.945312 178.292969 48.710938 179.167969 C 47.46875 180.046875 44.300781 180.53125 41.394531 180.484375 C 38.492188 180.4375 36.941406 178.476562 36.941406 178.476562 Z M 36.941406 178.476562 "/><path style=" stroke:none;fill-rule:nonzero;fill:#193948;fill-opacity:1;" d="M 39.523438 178.0625 C 39.503906 178.0625 39.488281 178.054688 39.46875 178.046875 C 39.414062 178.007812 39.394531 177.945312 39.421875 177.890625 C 40.574219 175.917969 39.421875 172.546875 39.414062 172.519531 C 39.394531 172.457031 39.421875 172.394531 39.488281 172.375 C 39.550781 172.355469 39.613281 172.382812 39.632812 172.449219 C 39.679688 172.59375 40.828125 175.953125 39.632812 178.007812 C 39.605469 178.046875 39.558594 178.0625 39.523438 178.0625 Z M 39.523438 178.0625 "/><path style=" stroke:none;fill-rule:nonzero;fill:#193948;fill-opacity:1;" d="M 42.902344 178.238281 C 42.882812 178.238281 42.875 178.238281 42.855469 178.226562 C 42.800781 178.199219 42.773438 178.136719 42.792969 178.074219 C 43.796875 175.773438 42.792969 172.53125 42.785156 172.492188 C 42.765625 172.429688 42.800781 172.367188 42.855469 172.347656 C 42.921875 172.328125 42.984375 172.367188 43.003906 172.421875 C 43.050781 172.558594 44.042969 175.789062 43.003906 178.164062 C 42.992188 178.210938 42.949219 178.238281 42.902344 178.238281 Z M 42.902344 178.238281 "/><path style=" stroke:none;fill-rule:nonzero;fill:#193948;fill-opacity:1;" d="M 45.808594 178.539062 C 45.789062 178.539062 45.761719 178.53125 45.742188 178.519531 C 45.6875 178.484375 45.679688 178.410156 45.707031 178.367188 C 46.910156 176.53125 46.109375 173.277344 46.097656 173.25 C 46.082031 173.1875 46.117188 173.125 46.179688 173.113281 C 46.246094 173.097656 46.308594 173.132812 46.316406 173.195312 C 46.355469 173.332031 47.160156 176.574219 45.898438 178.492188 C 45.878906 178.519531 45.84375 178.539062 45.808594 178.539062 Z M 45.808594 178.539062 "/><path style=" stroke:none;fill-rule:nonzero;fill:#193948;fill-opacity:1;" d="M 307.871094 250.261719 L 145.226562 250.261719 C 142.179688 250.261719 140.160156 247.613281 140.726562 244.34375 L 168.453125 82.378906 C 168.953125 79.445312 171.730469 76.84375 174.660156 76.542969 L 330.136719 60.945312 C 333.632812 60.597656 336.179688 62.890625 335.804688 66.085938 L 315.296875 243.734375 C 314.875 247.339844 311.542969 250.261719 307.871094 250.261719 Z M 307.871094 250.261719 "/><path style=" stroke:none;fill-rule:nonzero;fill:#ffffff;fill-opacity:1;" d="M 303.570312 245.96875 L 140.925781 245.96875 C 137.875 245.96875 135.859375 243.320312 136.425781 240.054688 L 164.148438 78.085938 C 164.652344 75.152344 167.429688 72.550781 170.359375 72.25 L 325.835938 56.652344 C 329.332031 56.304688 331.878906 58.597656 331.503906 61.792969 L 310.996094 239.441406 C 310.582031 243.046875 307.25 245.96875 303.570312 245.96875 Z M 303.570312 245.96875 "/><path style=" stroke:none;fill-rule:nonzero;fill:#fcdc73;fill-opacity:1;" d="M 302.054688 236.957031 L 144.480469 237.722656 L 168.507812 95.316406 L 320.390625 82.085938 Z M 302.054688 236.957031 "/><path style=" stroke:none;fill-rule:nonzero;fill:#4fadc0;fill-opacity:1;" d="M 176.332031 82.734375 C 176.105469 84.105469 174.808594 85.308594 173.4375 85.4375 C 172.066406 85.566406 171.15625 84.558594 171.382812 83.199219 C 171.609375 81.839844 172.898438 80.632812 174.269531 80.496094 C 175.628906 80.367188 176.550781 81.363281 176.332031 82.734375 Z M 176.332031 82.734375 "/><path style=" stroke:none;fill-rule:nonzero;fill:#4fadc0;fill-opacity:1;" d="M 193.664062 81.097656 C 193.445312 82.476562 192.132812 83.703125 190.734375 83.828125 C 189.335938 83.957031 188.394531 82.945312 188.613281 81.574219 C 188.835938 80.203125 190.148438 78.980469 191.539062 78.84375 C 192.933594 78.714844 193.882812 79.71875 193.664062 81.097656 Z M 193.664062 81.097656 "/><path style=" stroke:none;fill-rule:nonzero;fill:#4fadc0;fill-opacity:1;" d="M 184.953125 81.921875 C 184.726562 83.289062 183.429688 84.515625 182.039062 84.640625 C 180.660156 84.769531 179.730469 83.765625 179.957031 82.394531 C 180.1875 81.027344 181.484375 79.8125 182.863281 79.683594 C 184.242188 79.546875 185.179688 80.550781 184.953125 81.921875 Z M 184.953125 81.921875 "/><path style=" stroke:none;fill-rule:nonzero;fill:#4fadc0;fill-opacity:1;" d="M 274.601562 208.765625 L 175.691406 210.765625 L 178.242188 194.839844 L 276.757812 191.945312 Z M 274.601562 208.765625 "/><path style=" stroke:none;fill-rule:nonzero;fill:#ffffff;fill-opacity:1;" d="M 214.222656 197.121094 L 213.535156 203.617188 L 216.011719 203.617188 L 215.828125 205.367188 L 211.144531 205.367188 L 212.011719 197.121094 Z M 214.222656 197.121094 "/><path style=" stroke:none;fill-rule:nonzero;fill:#ffffff;fill-opacity:1;" d="M 220.496094 205.453125 C 218.238281 205.453125 216.597656 203.699219 216.851562 201.214844 C 217.117188 198.730469 219.125 196.996094 221.382812 196.996094 C 223.644531 196.996094 225.269531 198.738281 225.015625 201.214844 C 224.75 203.699219 222.75 205.453125 220.496094 205.453125 Z M 220.722656 203.324219 C 221.863281 203.324219 222.640625 202.492188 222.769531 201.222656 C 222.90625 199.925781 222.304688 199.105469 221.160156 199.105469 C 220.011719 199.105469 219.242188 199.925781 219.105469 201.222656 C 218.980469 202.492188 219.5625 203.324219 220.722656 203.324219 Z M 220.722656 203.324219 "/><path style=" stroke:none;fill-rule:nonzero;fill:#ffffff;fill-opacity:1;" d="M 233.617188 199.835938 L 231.234375 199.835938 C 231.035156 199.40625 230.605469 199.160156 229.992188 199.160156 C 228.878906 199.160156 228.113281 199.964844 227.984375 201.230469 C 227.835938 202.648438 228.457031 203.40625 229.765625 203.40625 C 230.53125 203.40625 231.132812 203.03125 231.535156 202.320312 L 229.316406 202.320312 L 229.492188 200.667969 L 233.617188 200.667969 L 233.378906 202.886719 C 232.777344 204.089844 231.40625 205.425781 229.335938 205.425781 C 226.898438 205.425781 225.472656 203.6875 225.738281 201.222656 C 225.992188 198.765625 227.765625 197.03125 230.203125 197.03125 C 232.222656 197.039062 233.480469 198.117188 233.617188 199.835938 Z M 233.617188 199.835938 "/><path style=" stroke:none;fill-rule:nonzero;fill:#ffffff;fill-opacity:1;" d="M 234.988281 197.121094 L 237.199219 197.121094 L 236.332031 205.367188 L 234.121094 205.367188 Z M 234.988281 197.121094 "/><path style=" stroke:none;fill-rule:nonzero;fill:#ffffff;fill-opacity:1;" d="M 245.835938 197.121094 L 244.96875 205.367188 L 242.757812 205.367188 L 240.292969 200.757812 L 239.808594 205.367188 L 237.601562 205.367188 L 238.46875 197.121094 L 240.675781 197.121094 L 243.132812 201.789062 L 243.625 197.121094 Z M 245.835938 197.121094 "/><path style=" stroke:none;fill-rule:nonzero;fill:#ffffff;fill-opacity:1;" d="M 255.816406 118.46875 C 254.421875 128.742188 244.6875 137.636719 234.183594 138.265625 C 223.800781 138.886719 216.695312 131.179688 218.183594 121.105469 C 219.664062 111.105469 229.105469 102.386719 239.390625 101.554688 C 249.792969 100.722656 257.199219 108.265625 255.816406 118.46875 Z M 255.816406 118.46875 "/><path style=" stroke:none;fill-rule:nonzero;fill:#193948;fill-opacity:1;" d="M 233.007812 138.640625 C 228.347656 138.640625 224.265625 136.96875 221.417969 133.855469 C 218.386719 130.550781 217.117188 126 217.847656 121.0625 C 219.34375 110.960938 228.988281 102.066406 239.351562 101.234375 C 244.59375 100.816406 249.207031 102.433594 252.394531 105.792969 C 255.480469 109.050781 256.804688 113.5625 256.136719 118.511719 C 254.722656 128.953125 244.878906 137.957031 234.195312 138.605469 C 233.800781 138.621094 233.398438 138.640625 233.007812 138.640625 Z M 240.960938 101.828125 C 240.449219 101.828125 239.9375 101.847656 239.40625 101.894531 C 229.335938 102.707031 219.949219 111.34375 218.496094 121.160156 C 217.792969 125.902344 219.007812 130.25 221.902344 133.417969 C 224.851562 136.640625 229.214844 138.246094 234.15625 137.945312 C 244.539062 137.324219 254.109375 128.566406 255.480469 118.429688 C 256.121094 113.691406 254.859375 109.363281 251.910156 106.25 C 249.199219 103.371094 245.34375 101.828125 240.960938 101.828125 Z M 240.960938 101.828125 "/><path style=" stroke:none;fill-rule:nonzero;fill:#193948;fill-opacity:1;" d="M 243.625 114.75 C 243.152344 118.066406 240 120.960938 236.59375 121.1875 C 233.207031 121.425781 230.859375 118.933594 231.34375 115.636719 C 231.828125 112.347656 234.953125 109.480469 238.332031 109.226562 C 241.71875 108.96875 244.101562 111.445312 243.625 114.75 Z M 243.625 114.75 "/><path style=" stroke:none;fill-rule:nonzero;fill:#193948;fill-opacity:1;" d="M 245.433594 129.800781 L 225.1875 131.105469 L 225.9375 126.027344 C 226.183594 124.367188 227.746094 122.933594 229.4375 122.816406 L 243.460938 121.847656 C 245.179688 121.726562 246.386719 122.988281 246.148438 124.667969 Z M 245.433594 129.800781 "/><path style=" stroke:none;fill-rule:nonzero;fill:#ffffff;fill-opacity:1;" d="M 277.789062 177.890625 L 181.082031 181.46875 L 183.179688 168.292969 L 279.582031 164 Z M 277.789062 177.890625 "/><path style=" stroke:none;fill-rule:nonzero;fill:#193948;fill-opacity:1;" d="M 217.042969 173.160156 L 216.175781 174.492188 L 214.210938 174.492188 L 216.203125 171.746094 L 214.695312 169.195312 L 216.707031 169.195312 L 217.480469 170.53125 L 218.359375 169.195312 L 220.320312 169.195312 L 218.292969 171.898438 L 219.828125 174.503906 L 217.820312 174.503906 Z M 217.042969 173.160156 "/><path style=" stroke:none;fill-rule:nonzero;fill:#193948;fill-opacity:1;" d="M 222.769531 173.160156 L 221.902344 174.492188 L 219.9375 174.492188 L 221.929688 171.746094 L 220.421875 169.195312 L 222.429688 169.195312 L 223.207031 170.53125 L 224.085938 169.195312 L 226.046875 169.195312 L 224.019531 171.898438 L 225.554688 174.503906 L 223.546875 174.503906 Z M 222.769531 173.160156 "/><path style=" stroke:none;fill-rule:nonzero;fill:#193948;fill-opacity:1;" d="M 228.496094 173.160156 L 227.628906 174.492188 L 225.664062 174.492188 L 227.65625 171.746094 L 226.148438 169.195312 L 228.15625 169.195312 L 228.933594 170.53125 L 229.808594 169.195312 L 231.773438 169.195312 L 229.746094 171.898438 L 231.28125 174.503906 L 229.269531 174.503906 Z M 228.496094 173.160156 "/><path style=" stroke:none;fill-rule:nonzero;fill:#193948;fill-opacity:1;" d="M 234.222656 173.160156 L 233.351562 174.492188 L 231.390625 174.492188 L 233.378906 171.746094 L 231.875 169.195312 L 233.882812 169.195312 L 234.660156 170.53125 L 235.535156 169.195312 L 237.5 169.195312 L 235.472656 171.898438 L 237.007812 174.503906 L 234.996094 174.503906 Z M 234.222656 173.160156 "/><path style=" stroke:none;fill-rule:nonzero;fill:#193948;fill-opacity:1;" d="M 239.945312 173.160156 L 239.078125 174.492188 L 237.117188 174.492188 L 239.105469 171.746094 L 237.601562 169.195312 L 239.609375 169.195312 L 240.386719 170.53125 L 241.261719 169.195312 L 243.226562 169.195312 L 241.199219 171.898438 L 242.730469 174.503906 L 240.722656 174.503906 Z M 239.945312 173.160156 "/><path style=" stroke:none;fill-rule:nonzero;fill:#193948;fill-opacity:1;" d="M 245.671875 173.160156 L 244.804688 174.492188 L 242.839844 174.492188 L 244.832031 171.746094 L 243.324219 169.195312 L 245.335938 169.195312 L 246.109375 170.53125 L 246.988281 169.195312 L 248.949219 169.195312 L 246.921875 171.898438 L 248.457031 174.503906 L 246.449219 174.503906 Z M 245.671875 173.160156 "/><path style=" stroke:none;fill-rule:nonzero;fill:#ffffff;fill-opacity:1;" d="M 280.421875 157.40625 L 184.1875 162.039062 L 186.269531 149.03125 L 282.183594 143.710938 Z M 280.421875 157.40625 "/><path style=" stroke:none;fill-rule:nonzero;fill:#fcdc73;fill-opacity:1;" d="M 255.582031 152.8125 L 208.722656 155.214844 L 209.007812 153.378906 L 255.835938 150.933594 Z M 255.582031 152.8125 "/><path style=" stroke:none;fill-rule:nonzero;fill:#193948;fill-opacity:1;" d="M 328.164062 220.570312 C 328.859375 221.285156 329.515625 222.035156 330.132812 222.816406 C 330.75 223.601562 331.328125 224.414062 331.863281 225.261719 C 332.398438 226.105469 332.886719 226.976562 333.335938 227.875 C 333.78125 228.773438 334.179688 229.691406 334.535156 230.636719 C 334.886719 231.578125 335.191406 232.539062 335.449219 233.515625 C 335.707031 234.492188 335.914062 235.484375 336.070312 236.484375 C 336.230469 237.488281 336.339844 238.5 336.398438 239.519531 C 336.453125 240.539062 336.460938 241.5625 336.417969 242.585938 C 336.378906 243.613281 336.285156 244.636719 336.140625 245.660156 C 335.996094 246.679688 335.804688 247.695312 335.5625 248.707031 C 335.320312 249.714844 335.03125 250.710938 334.691406 251.695312 C 334.351562 252.683594 333.96875 253.652344 333.535156 254.605469 C 333.101562 255.558594 332.625 256.488281 332.105469 257.402344 C 331.582031 258.3125 331.019531 259.199219 330.414062 260.058594 C 329.808594 260.917969 329.164062 261.75 328.476562 262.550781 C 327.792969 263.355469 327.074219 264.121094 326.316406 264.859375 C 325.5625 265.59375 324.773438 266.292969 323.953125 266.953125 C 323.132812 267.613281 322.285156 268.238281 321.40625 268.816406 C 320.527344 269.398438 319.628906 269.9375 318.703125 270.433594 C 317.777344 270.929688 316.832031 271.382812 315.867188 271.785156 C 314.902344 272.191406 313.921875 272.550781 312.929688 272.863281 C 311.933594 273.171875 310.929688 273.433594 309.914062 273.648438 C 308.898438 273.863281 307.878906 274.027344 306.851562 274.140625 C 305.828125 274.257812 304.800781 274.320312 303.773438 274.335938 C 302.746094 274.347656 301.726562 274.3125 300.707031 274.226562 C 299.691406 274.140625 298.683594 274.003906 297.683594 273.816406 C 296.6875 273.632812 295.703125 273.394531 294.730469 273.113281 C 293.761719 272.828125 292.8125 272.496094 291.878906 272.117188 C 290.949219 271.738281 290.039062 271.3125 289.152344 270.839844 C 288.269531 270.367188 287.410156 269.855469 286.582031 269.296875 C 285.75 268.738281 284.953125 268.140625 284.1875 267.5 C 283.421875 266.859375 282.691406 266.183594 281.996094 265.46875 C 281.300781 264.75 280.640625 264.003906 280.023438 263.21875 C 279.40625 262.433594 278.828125 261.621094 278.292969 260.773438 C 277.757812 259.929688 277.269531 259.058594 276.824219 258.160156 C 276.375 257.261719 275.976562 256.34375 275.625 255.398438 C 275.269531 254.457031 274.964844 253.5 274.707031 252.519531 C 274.449219 251.542969 274.242188 250.554688 274.085938 249.550781 C 273.925781 248.546875 273.816406 247.535156 273.761719 246.515625 C 273.703125 245.496094 273.695312 244.472656 273.738281 243.449219 C 273.78125 242.421875 273.871094 241.398438 274.015625 240.375 C 274.160156 239.355469 274.351562 238.339844 274.59375 237.332031 C 274.835938 236.320312 275.125 235.324219 275.464844 234.339844 C 275.804688 233.351562 276.191406 232.382812 276.621094 231.429688 C 277.054688 230.476562 277.53125 229.546875 278.054688 228.632812 C 278.574219 227.722656 279.136719 226.835938 279.742188 225.976562 C 280.347656 225.117188 280.996094 224.285156 281.679688 223.484375 C 282.363281 222.679688 283.082031 221.914062 283.839844 221.175781 C 284.59375 220.441406 285.382812 219.742188 286.203125 219.082031 C 287.023438 218.421875 287.875 217.800781 288.75 217.21875 C 289.628906 216.636719 290.527344 216.097656 291.453125 215.601562 C 292.378906 215.105469 293.324219 214.65625 294.289062 214.25 C 295.253906 213.84375 296.234375 213.484375 297.230469 213.175781 C 298.222656 212.863281 299.226562 212.601562 300.242188 212.386719 C 301.257812 212.171875 302.277344 212.007812 303.304688 211.894531 C 304.332031 211.777344 305.355469 211.714844 306.382812 211.699219 C 307.410156 211.6875 308.429688 211.722656 309.449219 211.808594 C 310.464844 211.894531 311.472656 212.03125 312.472656 212.21875 C 313.46875 212.40625 314.453125 212.640625 315.425781 212.925781 C 316.394531 213.207031 317.34375 213.539062 318.277344 213.917969 C 319.210938 214.300781 320.117188 214.722656 321.003906 215.195312 C 321.886719 215.667969 322.746094 216.179688 323.574219 216.738281 C 324.40625 217.296875 325.203125 217.894531 325.96875 218.535156 C 326.734375 219.175781 327.46875 219.855469 328.164062 220.570312 Z M 328.164062 220.570312 "/><path style=" stroke:none;fill-rule:nonzero;fill:#ffffff;fill-opacity:1;" d="M 323.988281 218.222656 C 324.683594 218.9375 325.339844 219.6875 325.957031 220.46875 C 326.578125 221.253906 327.152344 222.066406 327.6875 222.914062 C 328.222656 223.757812 328.714844 224.628906 329.160156 225.527344 C 329.605469 226.425781 330.003906 227.34375 330.359375 228.289062 C 330.710938 229.230469 331.015625 230.191406 331.273438 231.167969 C 331.53125 232.144531 331.738281 233.132812 331.898438 234.136719 C 332.054688 235.140625 332.164062 236.152344 332.222656 237.171875 C 332.28125 238.191406 332.289062 239.214844 332.246094 240.238281 C 332.203125 241.265625 332.109375 242.289062 331.964844 243.3125 C 331.824219 244.332031 331.628906 245.347656 331.386719 246.355469 C 331.148438 247.367188 330.855469 248.363281 330.515625 249.347656 C 330.179688 250.335938 329.792969 251.304688 329.359375 252.257812 C 328.929688 253.210938 328.453125 254.140625 327.929688 255.054688 C 327.40625 255.964844 326.84375 256.851562 326.238281 257.710938 C 325.632812 258.570312 324.988281 259.402344 324.304688 260.203125 C 323.621094 261.007812 322.898438 261.773438 322.144531 262.511719 C 321.386719 263.246094 320.597656 263.945312 319.777344 264.605469 C 318.957031 265.265625 318.109375 265.886719 317.230469 266.46875 C 316.355469 267.050781 315.453125 267.589844 314.527344 268.085938 C 313.601562 268.582031 312.65625 269.03125 311.691406 269.4375 C 310.726562 269.84375 309.75 270.203125 308.753906 270.511719 C 307.757812 270.824219 306.753906 271.085938 305.738281 271.300781 C 304.722656 271.515625 303.703125 271.679688 302.679688 271.792969 C 301.652344 271.910156 300.625 271.972656 299.597656 271.988281 C 298.574219 272 297.550781 271.964844 296.535156 271.878906 C 295.515625 271.792969 294.507812 271.65625 293.511719 271.46875 C 292.511719 271.28125 291.527344 271.046875 290.558594 270.761719 C 289.589844 270.480469 288.636719 270.148438 287.703125 269.769531 C 286.773438 269.386719 285.863281 268.964844 284.980469 268.492188 C 284.09375 268.019531 283.238281 267.507812 282.40625 266.949219 C 281.578125 266.390625 280.78125 265.792969 280.011719 265.152344 C 279.246094 264.511719 278.515625 263.835938 277.820312 263.117188 C 277.125 262.402344 276.46875 261.652344 275.847656 260.871094 C 275.230469 260.085938 274.65625 259.273438 274.121094 258.425781 C 273.585938 257.582031 273.09375 256.710938 272.648438 255.8125 C 272.203125 254.914062 271.800781 253.996094 271.449219 253.050781 C 271.097656 252.109375 270.789062 251.148438 270.535156 250.171875 C 270.277344 249.195312 270.070312 248.203125 269.910156 247.203125 C 269.753906 246.199219 269.644531 245.1875 269.585938 244.167969 C 269.527344 243.148438 269.519531 242.125 269.5625 241.101562 C 269.605469 240.074219 269.699219 239.050781 269.839844 238.027344 C 269.984375 237.007812 270.175781 235.992188 270.417969 234.984375 C 270.660156 233.972656 270.953125 232.976562 271.289062 231.992188 C 271.628906 231.003906 272.015625 230.035156 272.449219 229.082031 C 272.878906 228.128906 273.355469 227.199219 273.878906 226.285156 C 274.398438 225.375 274.964844 224.488281 275.570312 223.628906 C 276.175781 222.769531 276.820312 221.9375 277.503906 221.136719 C 278.1875 220.332031 278.910156 219.566406 279.664062 218.828125 C 280.421875 218.09375 281.210938 217.394531 282.03125 216.734375 C 282.851562 216.074219 283.699219 215.453125 284.578125 214.871094 C 285.453125 214.289062 286.355469 213.75 287.28125 213.253906 C 288.207031 212.757812 289.152344 212.308594 290.113281 211.902344 C 291.078125 211.496094 292.058594 211.136719 293.054688 210.828125 C 294.050781 210.515625 295.054688 210.253906 296.070312 210.039062 C 297.082031 209.824219 298.105469 209.660156 299.128906 209.546875 C 300.15625 209.429688 301.183594 209.367188 302.207031 209.351562 C 303.234375 209.339844 304.257812 209.375 305.273438 209.460938 C 306.292969 209.546875 307.300781 209.683594 308.296875 209.871094 C 309.296875 210.058594 310.28125 210.292969 311.25 210.578125 C 312.21875 210.859375 313.171875 211.191406 314.101562 211.570312 C 315.035156 211.953125 315.945312 212.375 316.828125 212.847656 C 317.714844 213.320312 318.570312 213.832031 319.402344 214.390625 C 320.230469 214.949219 321.027344 215.546875 321.796875 216.1875 C 322.5625 216.828125 323.292969 217.503906 323.988281 218.222656 Z M 323.988281 218.222656 "/><path style=" stroke:none;fill-rule:nonzero;fill:#193948;fill-opacity:1;" d="M 299.148438 272.507812 C 290.648438 272.507812 282.832031 269.203125 277.152344 263.183594 C 271.453125 257.15625 268.574219 249.148438 269.050781 240.628906 C 270.027344 223.085938 285.097656 208.8125 302.640625 208.8125 C 311.140625 208.8125 318.957031 212.117188 324.636719 218.136719 C 330.335938 224.164062 333.214844 232.171875 332.738281 240.691406 C 331.761719 258.234375 316.691406 272.507812 299.148438 272.507812 Z M 302.640625 209.863281 C 285.644531 209.863281 271.042969 223.6875 270.101562 240.691406 C 269.644531 248.921875 272.421875 256.65625 277.917969 262.464844 C 283.40625 268.261719 290.949219 271.457031 299.160156 271.457031 C 316.15625 271.457031 330.757812 257.632812 331.695312 240.636719 C 332.152344 232.410156 329.378906 224.675781 323.878906 218.867188 C 318.390625 213.058594 310.847656 209.863281 302.640625 209.863281 Z M 302.640625 209.863281 "/><path style=" stroke:none;fill-rule:nonzero;fill:#4fadc0;fill-opacity:1;" d="M 285.535156 234.738281 L 285.167969 233.980469 L 301.742188 225.386719 L 301.9375 225.496094 L 317.359375 233.980469 L 316.914062 234.738281 L 301.6875 226.371094 Z M 285.535156 234.738281 "/><path style=" stroke:none;fill-rule:nonzero;fill:#4fadc0;fill-opacity:1;" d="M 312.949219 234.355469 L 311.753906 255.90625 L 315.476562 255.90625 L 316.675781 234.355469 Z M 316.082031 236.382812 L 315.105469 253.90625 L 314.59375 253.90625 L 315.570312 236.382812 Z M 314.957031 236.382812 L 313.980469 253.90625 L 313.46875 253.90625 L 314.445312 236.382812 Z M 313.835938 236.382812 L 312.859375 253.90625 L 312.347656 253.90625 L 313.324219 236.382812 Z M 313.835938 236.382812 "/><path style=" stroke:none;fill-rule:nonzero;fill:#4fadc0;fill-opacity:1;" d="M 317.078125 235.421875 L 312.4375 235.421875 L 312.5 234.355469 L 317.132812 234.355469 Z M 317.078125 235.421875 "/><path style=" stroke:none;fill-rule:nonzero;fill:#4fadc0;fill-opacity:1;" d="M 315.933594 255.933594 L 311.296875 255.933594 L 311.359375 254.875 L 315.988281 254.875 Z M 315.933594 255.933594 "/><path style=" stroke:none;fill-rule:nonzero;fill:#4fadc0;fill-opacity:1;" d="M 306.914062 234.355469 L 305.714844 255.90625 L 309.441406 255.90625 L 310.636719 234.355469 Z M 310.054688 236.382812 L 309.078125 253.90625 L 308.566406 253.90625 L 309.542969 236.382812 Z M 308.921875 236.382812 L 307.945312 253.90625 L 307.433594 253.90625 L 308.410156 236.382812 Z M 307.796875 236.382812 L 306.820312 253.90625 L 306.308594 253.90625 L 307.285156 236.382812 Z M 307.796875 236.382812 "/><path style=" stroke:none;fill-rule:nonzero;fill:#4fadc0;fill-opacity:1;" d="M 311.039062 235.421875 L 306.402344 235.421875 L 306.464844 234.355469 L 311.09375 234.355469 Z M 311.039062 235.421875 "/><path style=" stroke:none;fill-rule:nonzero;fill:#4fadc0;fill-opacity:1;" d="M 309.898438 255.933594 L 305.257812 255.933594 L 305.324219 254.875 L 309.953125 254.875 Z M 309.898438 255.933594 "/><path style=" stroke:none;fill-rule:nonzero;fill:#4fadc0;fill-opacity:1;" d="M 292.683594 234.355469 L 291.488281 255.90625 L 295.214844 255.90625 L 296.410156 234.355469 Z M 295.816406 236.382812 L 294.839844 253.90625 L 294.328125 253.90625 L 295.304688 236.382812 Z M 294.695312 236.382812 L 293.714844 253.90625 L 293.207031 253.90625 L 294.183594 236.382812 Z M 293.570312 236.382812 L 292.59375 253.90625 L 292.082031 253.90625 L 293.058594 236.382812 Z M 293.570312 236.382812 "/><path style=" stroke:none;fill-rule:nonzero;fill:#4fadc0;fill-opacity:1;" d="M 296.804688 235.421875 L 292.171875 235.421875 L 292.226562 234.355469 L 296.867188 234.355469 Z M 296.804688 235.421875 "/><path style=" stroke:none;fill-rule:nonzero;fill:#4fadc0;fill-opacity:1;" d="M 295.660156 255.933594 L 291.03125 255.933594 L 291.085938 254.875 L 295.726562 254.875 Z M 295.660156 255.933594 "/><path style=" stroke:none;fill-rule:nonzero;fill:#4fadc0;fill-opacity:1;" d="M 286.648438 234.355469 L 285.453125 255.90625 L 289.179688 255.90625 L 290.375 234.355469 Z M 288.65625 236.382812 L 287.679688 253.90625 L 287.167969 253.90625 L 288.144531 236.382812 Z M 287.535156 236.382812 L 286.558594 253.90625 L 286.046875 253.90625 L 287.023438 236.382812 Z M 287.535156 236.382812 "/><path style=" stroke:none;fill-rule:nonzero;fill:#4fadc0;fill-opacity:1;" d="M 290.765625 235.421875 L 286.136719 235.421875 L 286.191406 234.355469 L 290.832031 234.355469 Z M 290.765625 235.421875 "/><path style=" stroke:none;fill-rule:nonzero;fill:#4fadc0;fill-opacity:1;" d="M 289.625 255.933594 L 284.996094 255.933594 L 285.050781 254.875 L 289.6875 254.875 Z M 289.625 255.933594 "/><path style=" stroke:none;fill-rule:nonzero;fill:#4fadc0;fill-opacity:1;" d="M 303.578125 245.558594 L 303.011719 255.761719 C 303.011719 255.84375 302.941406 255.90625 302.859375 255.90625 L 302.320312 255.90625 C 302.382812 255.90625 302.4375 255.851562 302.4375 255.789062 L 303.003906 245.625 C 303.066406 244.417969 302.144531 243.441406 300.941406 243.441406 C 299.734375 243.441406 298.703125 244.417969 298.628906 245.625 L 298.0625 255.789062 C 298.0625 255.851562 298.109375 255.90625 298.171875 255.90625 L 297.632812 255.90625 C 297.550781 255.90625 297.496094 255.84375 297.496094 255.761719 L 298.0625 245.558594 C 298.144531 244.042969 299.453125 242.8125 300.96875 242.8125 C 302.484375 242.8125 303.660156 244.042969 303.578125 245.558594 Z M 303.578125 245.558594 "/><path style=" stroke:none;fill-rule:nonzero;fill:#4fadc0;fill-opacity:1;" d="M 301.359375 235.925781 C 299.84375 235.925781 298.539062 237.15625 298.457031 238.675781 L 298.363281 240.335938 C 298.363281 240.417969 298.417969 240.480469 298.5 240.480469 L 303.714844 240.480469 C 303.796875 240.480469 303.863281 240.417969 303.871094 240.335938 L 303.964844 238.675781 C 304.046875 237.15625 302.875 235.925781 301.359375 235.925781 Z M 301.359375 235.925781 "/><path style=" stroke:none;fill-rule:nonzero;fill:#4fadc0;fill-opacity:1;" d="M 306.492188 241.96875 L 295.992188 241.96875 L 296.007812 241.550781 L 306.519531 241.550781 Z M 306.492188 241.96875 "/><path style=" stroke:none;fill-rule:nonzero;fill:#4fadc0;fill-opacity:1;" d="M 317.304688 234.847656 L 285.125 234.847656 C 284.867188 234.847656 284.675781 234.648438 284.695312 234.390625 L 284.695312 234.363281 C 284.710938 234.109375 284.921875 233.90625 285.179688 233.90625 L 317.359375 233.90625 C 317.617188 233.90625 317.808594 234.109375 317.789062 234.363281 L 317.789062 234.390625 C 317.769531 234.648438 317.5625 234.847656 317.304688 234.847656 Z M 317.304688 234.847656 "/><path style=" stroke:none;fill-rule:nonzero;fill:#4fadc0;fill-opacity:1;" d="M 301.316406 232.179688 C 300.765625 232.125 300.375 231.816406 300.390625 231.277344 L 301.132812 231.285156 C 301.140625 231.460938 301.214844 231.570312 301.351562 231.613281 L 301.398438 230.949219 C 300.96875 230.828125 300.429688 230.691406 300.472656 230.027344 C 300.511719 229.496094 300.957031 229.1875 301.515625 229.160156 L 301.535156 228.8125 L 301.796875 228.8125 L 301.78125 229.160156 C 302.335938 229.214844 302.675781 229.515625 302.675781 230.042969 L 301.925781 230.035156 C 301.917969 229.878906 301.851562 229.777344 301.734375 229.734375 L 301.6875 230.390625 C 302.117188 230.519531 302.667969 230.648438 302.628906 231.304688 C 302.601562 231.761719 302.21875 232.164062 301.570312 232.179688 L 301.550781 232.527344 L 301.289062 232.527344 Z M 301.433594 230.300781 L 301.46875 229.714844 C 301.316406 229.742188 301.214844 229.835938 301.203125 230 C 301.203125 230.144531 301.296875 230.234375 301.433594 230.300781 Z M 301.652344 231.03125 L 301.617188 231.632812 C 301.78125 231.605469 301.890625 231.496094 301.898438 231.332031 C 301.90625 231.175781 301.808594 231.09375 301.652344 231.03125 Z M 301.652344 231.03125 "/><path style=" stroke:none;fill-rule:nonzero;fill:#193948;fill-opacity:1;" d="M 163.976562 49.785156 C 163.976562 49.785156 153.628906 58.214844 134.003906 57.683594 L 134.003906 90.667969 C 134.003906 90.667969 147.402344 121.710938 163.996094 121.710938 C 180.585938 121.710938 193.949219 90.667969 193.949219 90.667969 L 193.949219 57.683594 C 174.324219 58.214844 163.976562 49.785156 163.976562 49.785156 Z M 163.976562 49.785156 "/><path style=" stroke:none;fill-rule:nonzero;fill:#4fadc0;fill-opacity:1;" d="M 191.179688 60.496094 L 191.179688 90.03125 C 190.242188 92.074219 187.164062 98.496094 182.753906 104.804688 C 178.175781 111.34375 171.210938 119.132812 163.984375 119.132812 L 163.96875 119.132812 C 156.753906 119.125 149.777344 111.335938 145.199219 104.796875 C 140.78125 98.496094 137.695312 92.074219 136.761719 90.019531 L 136.761719 60.488281 C 150.734375 60.113281 159.941406 55.59375 163.96875 53.117188 C 168.003906 55.601562 177.207031 60.121094 191.179688 60.496094 Z M 191.179688 60.496094 "/><g mask="url(#d195681d6b)" transform="matrix(1,0,0,1,163,52)"><g clip-path="url(#ed196962a8)"><g clip-rule="nonzero" clip-path="url(#9d93b78d0e)"><path style=" stroke:none;fill-rule:nonzero;fill:#193948;fill-opacity:1;" d="M 28.179688 8.496094 L 28.179688 38.03125 C 27.242188 40.074219 24.164062 46.496094 19.753906 52.804688 C 15.175781 59.34375 8.210938 67.132812 0.984375 67.132812 L 0.96875 67.132812 L 0.96875 1.117188 C 5.003906 3.601562 14.207031 8.121094 28.179688 8.496094 Z M 28.179688 8.496094 "/></g></g><mask id="d195681d6b"><g filter="url(#d770edf971)"><rect x="0" width="375" y="0" height="374.999991" style="fill:#000000;fill-opacity:0.2;stroke:none;"/></g></mask></g><path style=" stroke:none;fill-rule:nonzero;fill:#ffffff;fill-opacity:1;" d="M 154.925781 93.191406 L 150.066406 82.421875 C 149.574219 81.335938 150.058594 80.058594 151.144531 79.574219 C 152.234375 79.089844 153.511719 79.566406 153.996094 80.652344 L 156.9375 87.179688 L 177.914062 75.746094 C 178.953125 75.171875 180.269531 75.566406 180.835938 76.605469 C 181.402344 77.65625 181.015625 78.960938 179.976562 79.527344 Z M 154.925781 93.191406 "/><path style=" stroke:none;fill-rule:nonzero;fill:#193948;fill-opacity:1;" d="M 0.0351562 345.390625 L 360.132812 345.390625 L 360.132812 348.972656 L 0.0351562 348.972656 Z M 0.0351562 345.390625 "/><path style=" stroke:none;fill-rule:nonzero;fill:#4fadc0;fill-opacity:1;" d="M 204.195312 294.042969 L 204.195312 304.015625 C 204.195312 304.917969 203.453125 305.648438 202.542969 305.648438 L 152.5625 305.648438 C 151.65625 305.648438 150.917969 304.910156 150.917969 304.015625 L 150.917969 294.042969 C 150.917969 293.136719 151.65625 292.40625 152.5625 292.40625 L 202.542969 292.40625 C 203.453125 292.40625 204.195312 293.148438 204.195312 294.042969 Z M 204.195312 294.042969 "/><path style=" stroke:none;fill-rule:nonzero;fill:#193948;fill-opacity:1;" d="M 204.195312 303.128906 L 204.195312 304.015625 C 204.195312 304.917969 203.453125 305.648438 202.542969 305.648438 L 152.5625 305.648438 C 151.65625 305.648438 150.917969 304.910156 150.917969 304.015625 L 150.917969 303.128906 Z M 204.195312 303.128906 "/><path style=" stroke:none;fill-rule:nonzero;fill:#193948;fill-opacity:1;" d="M 156.605469 301.996094 C 156.414062 301.996094 156.269531 301.839844 156.269531 301.660156 L 156.269531 295.8125 C 156.269531 295.621094 156.425781 295.476562 156.605469 295.476562 C 156.789062 295.476562 156.945312 295.632812 156.945312 295.8125 L 156.945312 301.660156 C 156.953125 301.839844 156.796875 301.996094 156.605469 301.996094 Z M 156.605469 301.996094 "/><path style=" stroke:none;fill-rule:nonzero;fill:#193948;fill-opacity:1;" d="M 163.59375 301.996094 C 163.402344 301.996094 163.253906 301.839844 163.253906 301.660156 L 163.253906 295.8125 C 163.253906 295.621094 163.410156 295.476562 163.59375 295.476562 C 163.777344 295.476562 163.929688 295.632812 163.929688 295.8125 L 163.929688 301.660156 C 163.929688 301.839844 163.785156 301.996094 163.59375 301.996094 Z M 163.59375 301.996094 "/><path style=" stroke:none;fill-rule:nonzero;fill:#193948;fill-opacity:1;" d="M 170.578125 301.996094 C 170.386719 301.996094 170.242188 301.839844 170.242188 301.660156 L 170.242188 295.8125 C 170.242188 295.621094 170.394531 295.476562 170.578125 295.476562 C 170.761719 295.476562 170.917969 295.632812 170.917969 295.8125 L 170.917969 301.660156 C 170.917969 301.839844 170.761719 301.996094 170.578125 301.996094 Z M 170.578125 301.996094 "/><path style=" stroke:none;fill-rule:nonzero;fill:#193948;fill-opacity:1;" d="M 177.554688 301.996094 C 177.363281 301.996094 177.21875 301.839844 177.21875 301.660156 L 177.21875 295.8125 C 177.21875 295.621094 177.375 295.476562 177.554688 295.476562 C 177.738281 295.476562 177.894531 295.632812 177.894531 295.8125 L 177.894531 301.660156 C 177.902344 301.839844 177.746094 301.996094 177.554688 301.996094 Z M 177.554688 301.996094 "/><path style=" stroke:none;fill-rule:nonzero;fill:#193948;fill-opacity:1;" d="M 184.542969 301.996094 C 184.351562 301.996094 184.203125 301.839844 184.203125 301.660156 L 184.203125 295.8125 C 184.203125 295.621094 184.359375 295.476562 184.542969 295.476562 C 184.726562 295.476562 184.878906 295.632812 184.878906 295.8125 L 184.878906 301.660156 C 184.878906 301.839844 184.734375 301.996094 184.542969 301.996094 Z M 184.542969 301.996094 "/><path style=" stroke:none;fill-rule:nonzero;fill:#193948;fill-opacity:1;" d="M 191.527344 301.996094 C 191.335938 301.996094 191.191406 301.839844 191.191406 301.660156 L 191.191406 295.8125 C 191.191406 295.621094 191.34375 295.476562 191.527344 295.476562 C 191.710938 295.476562 191.867188 295.632812 191.867188 295.8125 L 191.867188 301.660156 C 191.867188 301.839844 191.710938 301.996094 191.527344 301.996094 Z M 191.527344 301.996094 "/><path style=" stroke:none;fill-rule:nonzero;fill:#193948;fill-opacity:1;" d="M 198.503906 301.996094 C 198.3125 301.996094 198.167969 301.839844 198.167969 301.660156 L 198.167969 295.8125 C 198.167969 295.621094 198.324219 295.476562 198.503906 295.476562 C 198.6875 295.476562 198.84375 295.632812 198.84375 295.8125 L 198.84375 301.660156 C 198.851562 301.839844 198.695312 301.996094 198.503906 301.996094 Z M 198.503906 301.996094 "/><path style=" stroke:none;fill-rule:nonzero;fill:#4fadc0;fill-opacity:1;" d="M 197.8125 307.292969 L 197.8125 317.265625 C 197.8125 318.167969 197.070312 318.898438 196.15625 318.898438 L 146.179688 318.898438 C 145.273438 318.898438 144.535156 318.160156 144.535156 317.265625 L 144.535156 307.292969 C 144.535156 306.390625 145.273438 305.65625 146.179688 305.65625 L 196.15625 305.65625 C 197.082031 305.65625 197.8125 306.390625 197.8125 307.292969 Z M 197.8125 307.292969 "/><path style=" stroke:none;fill-rule:nonzero;fill:#193948;fill-opacity:1;" d="M 197.8125 316.378906 L 197.8125 317.265625 C 197.8125 318.167969 197.070312 318.898438 196.15625 318.898438 L 146.179688 318.898438 C 145.273438 318.898438 144.535156 318.160156 144.535156 317.265625 L 144.535156 316.378906 Z M 197.8125 316.378906 "/><path style=" stroke:none;fill-rule:nonzero;fill:#193948;fill-opacity:1;" d="M 150.234375 315.246094 C 150.039062 315.246094 149.894531 315.089844 149.894531 314.910156 L 149.894531 309.0625 C 149.894531 308.871094 150.050781 308.726562 150.234375 308.726562 C 150.414062 308.726562 150.570312 308.882812 150.570312 309.0625 L 150.570312 314.910156 C 150.570312 315.089844 150.414062 315.246094 150.234375 315.246094 Z M 150.234375 315.246094 "/><path style=" stroke:none;fill-rule:nonzero;fill:#193948;fill-opacity:1;" d="M 157.21875 315.246094 C 157.027344 315.246094 156.878906 315.089844 156.878906 314.910156 L 156.878906 309.0625 C 156.878906 308.871094 157.035156 308.726562 157.21875 308.726562 C 157.402344 308.726562 157.554688 308.882812 157.554688 309.0625 L 157.554688 314.910156 C 157.554688 315.089844 157.402344 315.246094 157.21875 315.246094 Z M 157.21875 315.246094 "/><path style=" stroke:none;fill-rule:nonzero;fill:#193948;fill-opacity:1;" d="M 164.195312 315.246094 C 164.003906 315.246094 163.859375 315.089844 163.859375 314.910156 L 163.859375 309.0625 C 163.859375 308.871094 164.011719 308.726562 164.195312 308.726562 C 164.378906 308.726562 164.535156 308.882812 164.535156 309.0625 L 164.535156 314.910156 C 164.542969 315.089844 164.386719 315.246094 164.195312 315.246094 Z M 164.195312 315.246094 "/><path style=" stroke:none;fill-rule:nonzero;fill:#193948;fill-opacity:1;" d="M 171.183594 315.246094 C 170.988281 315.246094 170.84375 315.089844 170.84375 314.910156 L 170.84375 309.0625 C 170.84375 308.871094 171 308.726562 171.183594 308.726562 C 171.363281 308.726562 171.519531 308.882812 171.519531 309.0625 L 171.519531 314.910156 C 171.519531 315.089844 171.375 315.246094 171.183594 315.246094 Z M 171.183594 315.246094 "/><path style=" stroke:none;fill-rule:nonzero;fill:#193948;fill-opacity:1;" d="M 178.167969 315.246094 C 177.976562 315.246094 177.828125 315.089844 177.828125 314.910156 L 177.828125 309.0625 C 177.828125 308.871094 177.984375 308.726562 178.167969 308.726562 C 178.351562 308.726562 178.503906 308.882812 178.503906 309.0625 L 178.503906 314.910156 C 178.503906 315.089844 178.351562 315.246094 178.167969 315.246094 Z M 178.167969 315.246094 "/><path style=" stroke:none;fill-rule:nonzero;fill:#193948;fill-opacity:1;" d="M 185.144531 315.246094 C 184.953125 315.246094 184.808594 315.089844 184.808594 314.910156 L 184.808594 309.0625 C 184.808594 308.871094 184.960938 308.726562 185.144531 308.726562 C 185.328125 308.726562 185.484375 308.882812 185.484375 309.0625 L 185.484375 314.910156 C 185.492188 315.089844 185.335938 315.246094 185.144531 315.246094 Z M 185.144531 315.246094 "/><path style=" stroke:none;fill-rule:nonzero;fill:#193948;fill-opacity:1;" d="M 192.132812 315.246094 C 191.9375 315.246094 191.792969 315.089844 191.792969 314.910156 L 191.792969 309.0625 C 191.792969 308.871094 191.949219 308.726562 192.132812 308.726562 C 192.3125 308.726562 192.46875 308.882812 192.46875 309.0625 L 192.46875 314.910156 C 192.46875 315.089844 192.324219 315.246094 192.132812 315.246094 Z M 192.132812 315.246094 "/><path style=" stroke:none;fill-rule:nonzero;fill:#4fadc0;fill-opacity:1;" d="M 202.265625 320.542969 L 202.265625 330.515625 C 202.265625 331.417969 201.527344 332.152344 200.613281 332.152344 L 150.632812 332.152344 C 149.730469 332.152344 148.992188 331.410156 148.992188 330.515625 L 148.992188 320.542969 C 148.992188 319.640625 149.730469 318.910156 150.632812 318.910156 L 200.613281 318.910156 C 201.527344 318.898438 202.265625 319.640625 202.265625 320.542969 Z M 202.265625 320.542969 "/><path style=" stroke:none;fill-rule:nonzero;fill:#193948;fill-opacity:1;" d="M 202.265625 329.628906 L 202.265625 330.515625 C 202.265625 331.417969 201.527344 332.152344 200.613281 332.152344 L 150.632812 332.152344 C 149.730469 332.152344 148.992188 331.410156 148.992188 330.515625 L 148.992188 329.628906 Z M 202.265625 329.628906 "/><path style=" stroke:none;fill-rule:nonzero;fill:#193948;fill-opacity:1;" d="M 154.679688 328.488281 C 154.488281 328.488281 154.34375 328.332031 154.34375 328.152344 L 154.34375 322.304688 C 154.34375 322.113281 154.496094 321.96875 154.679688 321.96875 C 154.863281 321.96875 155.019531 322.125 155.019531 322.304688 L 155.019531 328.152344 C 155.027344 328.34375 154.871094 328.488281 154.679688 328.488281 Z M 154.679688 328.488281 "/><path style=" stroke:none;fill-rule:nonzero;fill:#193948;fill-opacity:1;" d="M 161.667969 328.488281 C 161.472656 328.488281 161.328125 328.332031 161.328125 328.152344 L 161.328125 322.304688 C 161.328125 322.113281 161.484375 321.96875 161.667969 321.96875 C 161.847656 321.96875 162.003906 322.125 162.003906 322.304688 L 162.003906 328.152344 C 162.011719 328.34375 161.859375 328.488281 161.667969 328.488281 Z M 161.667969 328.488281 "/><path style=" stroke:none;fill-rule:nonzero;fill:#193948;fill-opacity:1;" d="M 168.652344 328.488281 C 168.460938 328.488281 168.3125 328.332031 168.3125 328.152344 L 168.3125 322.304688 C 168.3125 322.113281 168.46875 321.96875 168.652344 321.96875 C 168.835938 321.96875 168.988281 322.125 168.988281 322.304688 L 168.988281 328.152344 C 168.988281 328.34375 168.835938 328.488281 168.652344 328.488281 Z M 168.652344 328.488281 "/><path style=" stroke:none;fill-rule:nonzero;fill:#193948;fill-opacity:1;" d="M 175.628906 328.488281 C 175.4375 328.488281 175.292969 328.332031 175.292969 328.152344 L 175.292969 322.304688 C 175.292969 322.113281 175.445312 321.96875 175.628906 321.96875 C 175.8125 321.96875 175.96875 322.125 175.96875 322.304688 L 175.96875 328.152344 C 175.976562 328.34375 175.820312 328.488281 175.628906 328.488281 Z M 175.628906 328.488281 "/><path style=" stroke:none;fill-rule:nonzero;fill:#193948;fill-opacity:1;" d="M 182.613281 328.488281 C 182.421875 328.488281 182.277344 328.332031 182.277344 328.152344 L 182.277344 322.304688 C 182.277344 322.113281 182.433594 321.96875 182.613281 321.96875 C 182.796875 321.96875 182.953125 322.125 182.953125 322.304688 L 182.953125 328.152344 C 182.960938 328.34375 182.808594 328.488281 182.613281 328.488281 Z M 182.613281 328.488281 "/><path style=" stroke:none;fill-rule:nonzero;fill:#193948;fill-opacity:1;" d="M 189.601562 328.488281 C 189.410156 328.488281 189.261719 328.332031 189.261719 328.152344 L 189.261719 322.304688 C 189.261719 322.113281 189.417969 321.96875 189.601562 321.96875 C 189.785156 321.96875 189.9375 322.125 189.9375 322.304688 L 189.9375 328.152344 C 189.9375 328.34375 189.785156 328.488281 189.601562 328.488281 Z M 189.601562 328.488281 "/><path style=" stroke:none;fill-rule:nonzero;fill:#193948;fill-opacity:1;" d="M 196.585938 328.488281 C 196.394531 328.488281 196.25 328.332031 196.25 328.152344 L 196.25 322.304688 C 196.25 322.113281 196.40625 321.96875 196.585938 321.96875 C 196.769531 321.96875 196.925781 322.125 196.925781 322.304688 L 196.925781 328.152344 C 196.925781 328.34375 196.769531 328.488281 196.585938 328.488281 Z M 196.585938 328.488281 "/><path style=" stroke:none;fill-rule:nonzero;fill:#4fadc0;fill-opacity:1;" d="M 204.195312 333.792969 L 204.195312 343.765625 C 204.195312 344.671875 203.453125 345.402344 202.542969 345.402344 L 152.5625 345.402344 C 151.65625 345.402344 150.917969 344.660156 150.917969 343.765625 L 150.917969 333.792969 C 150.917969 332.890625 151.65625 332.160156 152.5625 332.160156 L 202.542969 332.160156 C 203.453125 332.152344 204.195312 332.890625 204.195312 333.792969 Z M 204.195312 333.792969 "/><path style=" stroke:none;fill-rule:nonzero;fill:#193948;fill-opacity:1;" d="M 204.195312 342.871094 L 204.195312 343.757812 C 204.195312 344.660156 203.453125 345.390625 202.542969 345.390625 L 152.5625 345.390625 C 151.65625 345.390625 150.917969 344.652344 150.917969 343.757812 L 150.917969 342.871094 Z M 204.195312 342.871094 "/><path style=" stroke:none;fill-rule:nonzero;fill:#193948;fill-opacity:1;" d="M 156.605469 341.738281 C 156.414062 341.738281 156.269531 341.582031 156.269531 341.402344 L 156.269531 335.558594 C 156.269531 335.363281 156.425781 335.21875 156.605469 335.21875 C 156.789062 335.21875 156.945312 335.375 156.945312 335.558594 L 156.945312 341.402344 C 156.953125 341.582031 156.796875 341.738281 156.605469 341.738281 Z M 156.605469 341.738281 "/><path style=" stroke:none;fill-rule:nonzero;fill:#193948;fill-opacity:1;" d="M 163.59375 341.738281 C 163.402344 341.738281 163.253906 341.582031 163.253906 341.402344 L 163.253906 335.558594 C 163.253906 335.363281 163.410156 335.21875 163.59375 335.21875 C 163.777344 335.21875 163.929688 335.375 163.929688 335.558594 L 163.929688 341.402344 C 163.929688 341.582031 163.785156 341.738281 163.59375 341.738281 Z M 163.59375 341.738281 "/><path style=" stroke:none;fill-rule:nonzero;fill:#193948;fill-opacity:1;" d="M 170.578125 341.738281 C 170.386719 341.738281 170.242188 341.582031 170.242188 341.402344 L 170.242188 335.558594 C 170.242188 335.363281 170.394531 335.21875 170.578125 335.21875 C 170.761719 335.21875 170.917969 335.375 170.917969 335.558594 L 170.917969 341.402344 C 170.917969 341.582031 170.761719 341.738281 170.578125 341.738281 Z M 170.578125 341.738281 "/><path style=" stroke:none;fill-rule:nonzero;fill:#193948;fill-opacity:1;" d="M 177.554688 341.738281 C 177.363281 341.738281 177.21875 341.582031 177.21875 341.402344 L 177.21875 335.558594 C 177.21875 335.363281 177.375 335.21875 177.554688 335.21875 C 177.738281 335.21875 177.894531 335.375 177.894531 335.558594 L 177.894531 341.402344 C 177.902344 341.582031 177.746094 341.738281 177.554688 341.738281 Z M 177.554688 341.738281 "/><path style=" stroke:none;fill-rule:nonzero;fill:#193948;fill-opacity:1;" d="M 184.542969 341.738281 C 184.351562 341.738281 184.203125 341.582031 184.203125 341.402344 L 184.203125 335.558594 C 184.203125 335.363281 184.359375 335.21875 184.542969 335.21875 C 184.726562 335.21875 184.878906 335.375 184.878906 335.558594 L 184.878906 341.402344 C 184.878906 341.582031 184.734375 341.738281 184.542969 341.738281 Z M 184.542969 341.738281 "/><path style=" stroke:none;fill-rule:nonzero;fill:#193948;fill-opacity:1;" d="M 191.527344 341.738281 C 191.335938 341.738281 191.191406 341.582031 191.191406 341.402344 L 191.191406 335.558594 C 191.191406 335.363281 191.34375 335.21875 191.527344 335.21875 C 191.710938 335.21875 191.867188 335.375 191.867188 335.558594 L 191.867188 341.402344 C 191.867188 341.582031 191.710938 341.738281 191.527344 341.738281 Z M 191.527344 341.738281 "/><path style=" stroke:none;fill-rule:nonzero;fill:#193948;fill-opacity:1;" d="M 198.503906 341.738281 C 198.3125 341.738281 198.167969 341.582031 198.167969 341.402344 L 198.167969 335.558594 C 198.167969 335.363281 198.324219 335.21875 198.503906 335.21875 C 198.6875 335.21875 198.84375 335.375 198.84375 335.558594 L 198.84375 341.402344 C 198.851562 341.582031 198.695312 341.738281 198.503906 341.738281 Z M 198.503906 341.738281 "/><path style=" stroke:none;fill-rule:nonzero;fill:#4fadc0;fill-opacity:1;" d="M 212.402344 307.292969 L 212.402344 317.265625 C 212.402344 318.167969 213.144531 318.898438 214.058594 318.898438 L 264.039062 318.898438 C 264.941406 318.898438 265.679688 318.160156 265.679688 317.265625 L 265.679688 307.292969 C 265.679688 306.390625 264.941406 305.65625 264.039062 305.65625 L 214.058594 305.65625 C 213.132812 305.65625 212.402344 306.390625 212.402344 307.292969 Z M 212.402344 307.292969 "/><path style=" stroke:none;fill-rule:nonzero;fill:#193948;fill-opacity:1;" d="M 212.402344 316.378906 L 212.402344 317.265625 C 212.402344 318.167969 213.144531 318.898438 214.058594 318.898438 L 264.039062 318.898438 C 264.941406 318.898438 265.679688 318.160156 265.679688 317.265625 L 265.679688 316.378906 Z M 212.402344 316.378906 "/><path style=" stroke:none;fill-rule:nonzero;fill:#193948;fill-opacity:1;" d="M 259.984375 315.246094 C 259.789062 315.246094 259.644531 315.089844 259.644531 314.910156 L 259.644531 309.0625 C 259.644531 308.871094 259.800781 308.726562 259.984375 308.726562 C 260.164062 308.726562 260.320312 308.882812 260.320312 309.0625 L 260.320312 314.910156 C 260.328125 315.089844 260.175781 315.246094 259.984375 315.246094 Z M 259.984375 315.246094 "/><path style=" stroke:none;fill-rule:nonzero;fill:#193948;fill-opacity:1;" d="M 253.003906 315.246094 C 252.8125 315.246094 252.667969 315.089844 252.667969 314.910156 L 252.667969 309.0625 C 252.667969 308.871094 252.824219 308.726562 253.003906 308.726562 C 253.1875 308.726562 253.34375 308.882812 253.34375 309.0625 L 253.34375 314.910156 C 253.34375 315.089844 253.1875 315.246094 253.003906 315.246094 Z M 253.003906 315.246094 "/><path style=" stroke:none;fill-rule:nonzero;fill:#193948;fill-opacity:1;" d="M 246.019531 315.246094 C 245.828125 315.246094 245.683594 315.089844 245.683594 314.910156 L 245.683594 309.0625 C 245.683594 308.871094 245.835938 308.726562 246.019531 308.726562 C 246.203125 308.726562 246.359375 308.882812 246.359375 309.0625 L 246.359375 314.910156 C 246.359375 315.089844 246.203125 315.246094 246.019531 315.246094 Z M 246.019531 315.246094 "/><path style=" stroke:none;fill-rule:nonzero;fill:#193948;fill-opacity:1;" d="M 239.035156 315.246094 C 238.839844 315.246094 238.695312 315.089844 238.695312 314.910156 L 238.695312 309.0625 C 238.695312 308.871094 238.851562 308.726562 239.035156 308.726562 C 239.214844 308.726562 239.371094 308.882812 239.371094 309.0625 L 239.371094 314.910156 C 239.371094 315.089844 239.226562 315.246094 239.035156 315.246094 Z M 239.035156 315.246094 "/><path style=" stroke:none;fill-rule:nonzero;fill:#193948;fill-opacity:1;" d="M 232.046875 315.246094 C 231.855469 315.246094 231.710938 315.089844 231.710938 314.910156 L 231.710938 309.0625 C 231.710938 308.871094 231.863281 308.726562 232.046875 308.726562 C 232.230469 308.726562 232.386719 308.882812 232.386719 309.0625 L 232.386719 314.910156 C 232.394531 315.089844 232.238281 315.246094 232.046875 315.246094 Z M 232.046875 315.246094 "/><path style=" stroke:none;fill-rule:nonzero;fill:#193948;fill-opacity:1;" d="M 225.070312 315.246094 C 224.878906 315.246094 224.734375 315.089844 224.734375 314.910156 L 224.734375 309.0625 C 224.734375 308.871094 224.886719 308.726562 225.070312 308.726562 C 225.253906 308.726562 225.410156 308.882812 225.410156 309.0625 L 225.410156 314.910156 C 225.410156 315.089844 225.253906 315.246094 225.070312 315.246094 Z M 225.070312 315.246094 "/><path style=" stroke:none;fill-rule:nonzero;fill:#193948;fill-opacity:1;" d="M 218.085938 315.246094 C 217.894531 315.246094 217.746094 315.089844 217.746094 314.910156 L 217.746094 309.0625 C 217.746094 308.871094 217.902344 308.726562 218.085938 308.726562 C 218.265625 308.726562 218.421875 308.882812 218.421875 309.0625 L 218.421875 314.910156 C 218.421875 315.089844 218.277344 315.246094 218.085938 315.246094 Z M 218.085938 315.246094 "/><path style=" stroke:none;fill-rule:nonzero;fill:#4fadc0;fill-opacity:1;" d="M 204.332031 320.542969 L 204.332031 330.515625 C 204.332031 331.417969 205.070312 332.152344 205.984375 332.152344 L 255.964844 332.152344 C 256.867188 332.152344 257.609375 331.410156 257.609375 330.515625 L 257.609375 320.542969 C 257.609375 319.640625 256.867188 318.910156 255.964844 318.910156 L 205.984375 318.910156 C 205.070312 318.898438 204.332031 319.640625 204.332031 320.542969 Z M 204.332031 320.542969 "/><path style=" stroke:none;fill-rule:nonzero;fill:#193948;fill-opacity:1;" d="M 204.332031 329.628906 L 204.332031 330.515625 C 204.332031 331.417969 205.070312 332.152344 205.984375 332.152344 L 255.964844 332.152344 C 256.867188 332.152344 257.609375 331.410156 257.609375 330.515625 L 257.609375 329.628906 Z M 204.332031 329.628906 "/><path style=" stroke:none;fill-rule:nonzero;fill:#193948;fill-opacity:1;" d="M 251.917969 328.488281 C 251.726562 328.488281 251.582031 328.332031 251.582031 328.152344 L 251.582031 322.304688 C 251.582031 322.113281 251.734375 321.96875 251.917969 321.96875 C 252.101562 321.96875 252.257812 322.125 252.257812 322.304688 L 252.257812 328.152344 C 252.257812 328.34375 252.109375 328.488281 251.917969 328.488281 Z M 251.917969 328.488281 "/><path style=" stroke:none;fill-rule:nonzero;fill:#193948;fill-opacity:1;" d="M 244.933594 328.488281 C 244.742188 328.488281 244.59375 328.332031 244.59375 328.152344 L 244.59375 322.304688 C 244.59375 322.113281 244.75 321.96875 244.933594 321.96875 C 245.117188 321.96875 245.269531 322.125 245.269531 322.304688 L 245.269531 328.152344 C 245.28125 328.34375 245.125 328.488281 244.933594 328.488281 Z M 244.933594 328.488281 "/><path style=" stroke:none;fill-rule:nonzero;fill:#193948;fill-opacity:1;" d="M 237.957031 328.488281 C 237.765625 328.488281 237.617188 328.332031 237.617188 328.152344 L 237.617188 322.304688 C 237.617188 322.113281 237.773438 321.96875 237.957031 321.96875 C 238.136719 321.96875 238.292969 322.125 238.292969 322.304688 L 238.292969 328.152344 C 238.292969 328.34375 238.136719 328.488281 237.957031 328.488281 Z M 237.957031 328.488281 "/><path style=" stroke:none;fill-rule:nonzero;fill:#193948;fill-opacity:1;" d="M 230.96875 328.488281 C 230.777344 328.488281 230.632812 328.332031 230.632812 328.152344 L 230.632812 322.304688 C 230.632812 322.113281 230.789062 321.96875 230.96875 321.96875 C 231.152344 321.96875 231.308594 322.125 231.308594 322.304688 L 231.308594 328.152344 C 231.308594 328.34375 231.152344 328.488281 230.96875 328.488281 Z M 230.96875 328.488281 "/><path style=" stroke:none;fill-rule:nonzero;fill:#193948;fill-opacity:1;" d="M 223.984375 328.488281 C 223.792969 328.488281 223.644531 328.332031 223.644531 328.152344 L 223.644531 322.304688 C 223.644531 322.113281 223.800781 321.96875 223.984375 321.96875 C 224.167969 321.96875 224.320312 322.125 224.320312 322.304688 L 224.320312 328.152344 C 224.332031 328.34375 224.175781 328.488281 223.984375 328.488281 Z M 223.984375 328.488281 "/><path style=" stroke:none;fill-rule:nonzero;fill:#193948;fill-opacity:1;" d="M 216.996094 328.488281 C 216.804688 328.488281 216.660156 328.332031 216.660156 328.152344 L 216.660156 322.304688 C 216.660156 322.113281 216.816406 321.96875 216.996094 321.96875 C 217.179688 321.96875 217.335938 322.125 217.335938 322.304688 L 217.335938 328.152344 C 217.34375 328.34375 217.1875 328.488281 216.996094 328.488281 Z M 216.996094 328.488281 "/><path style=" stroke:none;fill-rule:nonzero;fill:#193948;fill-opacity:1;" d="M 210.019531 328.488281 C 209.828125 328.488281 209.683594 328.332031 209.683594 328.152344 L 209.683594 322.304688 C 209.683594 322.113281 209.839844 321.96875 210.019531 321.96875 C 210.203125 321.96875 210.359375 322.125 210.359375 322.304688 L 210.359375 328.152344 C 210.359375 328.34375 210.203125 328.488281 210.019531 328.488281 Z M 210.019531 328.488281 "/><path style=" stroke:none;fill-rule:nonzero;fill:#4fadc0;fill-opacity:1;" d="M 206.019531 333.792969 L 206.019531 343.765625 C 206.019531 344.671875 206.761719 345.402344 207.671875 345.402344 L 257.652344 345.402344 C 258.558594 345.402344 259.296875 344.660156 259.296875 343.765625 L 259.296875 333.792969 C 259.296875 332.890625 258.558594 332.160156 257.652344 332.160156 L 207.671875 332.160156 C 206.761719 332.152344 206.019531 332.890625 206.019531 333.792969 Z M 206.019531 333.792969 "/><path style=" stroke:none;fill-rule:nonzero;fill:#193948;fill-opacity:1;" d="M 206.019531 342.871094 L 206.019531 343.757812 C 206.019531 344.660156 206.761719 345.390625 207.671875 345.390625 L 257.652344 345.390625 C 258.558594 345.390625 259.296875 344.652344 259.296875 343.757812 L 259.296875 342.871094 Z M 206.019531 342.871094 "/><path style=" stroke:none;fill-rule:nonzero;fill:#193948;fill-opacity:1;" d="M 253.609375 341.738281 C 253.417969 341.738281 253.269531 341.582031 253.269531 341.402344 L 253.269531 335.558594 C 253.269531 335.363281 253.425781 335.21875 253.609375 335.21875 C 253.789062 335.21875 253.945312 335.375 253.945312 335.558594 L 253.945312 341.402344 C 253.945312 341.582031 253.789062 341.738281 253.609375 341.738281 Z M 253.609375 341.738281 "/><path style=" stroke:none;fill-rule:nonzero;fill:#193948;fill-opacity:1;" d="M 246.621094 341.738281 C 246.429688 341.738281 246.285156 341.582031 246.285156 341.402344 L 246.285156 335.558594 C 246.285156 335.363281 246.441406 335.21875 246.621094 335.21875 C 246.804688 335.21875 246.960938 335.375 246.960938 335.558594 L 246.960938 341.402344 C 246.960938 341.582031 246.8125 341.738281 246.621094 341.738281 Z M 246.621094 341.738281 "/><path style=" stroke:none;fill-rule:nonzero;fill:#193948;fill-opacity:1;" d="M 239.636719 341.738281 C 239.445312 341.738281 239.296875 341.582031 239.296875 341.402344 L 239.296875 335.558594 C 239.296875 335.363281 239.453125 335.21875 239.636719 335.21875 C 239.820312 335.21875 239.972656 335.375 239.972656 335.558594 L 239.972656 341.402344 C 239.984375 341.582031 239.828125 341.738281 239.636719 341.738281 Z M 239.636719 341.738281 "/><path style=" stroke:none;fill-rule:nonzero;fill:#193948;fill-opacity:1;" d="M 232.660156 341.738281 C 232.46875 341.738281 232.320312 341.582031 232.320312 341.402344 L 232.320312 335.558594 C 232.320312 335.363281 232.476562 335.21875 232.660156 335.21875 C 232.84375 335.21875 232.996094 335.375 232.996094 335.558594 L 232.996094 341.402344 C 232.996094 341.582031 232.84375 341.738281 232.660156 341.738281 Z M 232.660156 341.738281 "/><path style=" stroke:none;fill-rule:nonzero;fill:#193948;fill-opacity:1;" d="M 225.671875 341.738281 C 225.480469 341.738281 225.335938 341.582031 225.335938 341.402344 L 225.335938 335.558594 C 225.335938 335.363281 225.492188 335.21875 225.671875 335.21875 C 225.855469 335.21875 226.011719 335.375 226.011719 335.558594 L 226.011719 341.402344 C 226.011719 341.582031 225.855469 341.738281 225.671875 341.738281 Z M 225.671875 341.738281 "/><path style=" stroke:none;fill-rule:nonzero;fill:#193948;fill-opacity:1;" d="M 218.6875 341.738281 C 218.496094 341.738281 218.347656 341.582031 218.347656 341.402344 L 218.347656 335.558594 C 218.347656 335.363281 218.503906 335.21875 218.6875 335.21875 C 218.871094 335.21875 219.023438 335.375 219.023438 335.558594 L 219.023438 341.402344 C 219.035156 341.582031 218.878906 341.738281 218.6875 341.738281 Z M 218.6875 341.738281 "/><path style=" stroke:none;fill-rule:nonzero;fill:#193948;fill-opacity:1;" d="M 211.699219 341.738281 C 211.507812 341.738281 211.363281 341.582031 211.363281 341.402344 L 211.363281 335.558594 C 211.363281 335.363281 211.519531 335.21875 211.699219 335.21875 C 211.882812 335.21875 212.039062 335.375 212.039062 335.558594 L 212.039062 341.402344 C 212.046875 341.582031 211.894531 341.738281 211.699219 341.738281 Z M 211.699219 341.738281 "/><path style=" stroke:none;fill-rule:nonzero;fill:#4fadc0;fill-opacity:1;" d="M 341.332031 138.265625 L 343.535156 140.46875 L 333.523438 150.476562 L 331.324219 148.273438 Z M 341.332031 138.265625 "/><path style=" stroke:none;fill-rule:nonzero;fill:#4fadc0;fill-opacity:1;" d="M 343.542969 148.28125 L 341.339844 150.484375 L 331.332031 140.472656 L 333.535156 138.273438 Z M 343.542969 148.28125 "/><path style=" stroke:none;fill-rule:nonzero;fill:#fcdc73;fill-opacity:1;" d="M 350.214844 94.824219 L 351.71875 96.328125 L 344.859375 103.1875 L 343.355469 101.683594 Z M 350.214844 94.824219 "/><path style=" stroke:none;fill-rule:nonzero;fill:#fcdc73;fill-opacity:1;" d="M 351.722656 101.6875 L 350.21875 103.191406 L 343.363281 96.335938 L 344.867188 94.832031 Z M 351.722656 101.6875 "/></g></svg>