<svg xmlns="http://www.w3.org/2000/svg" xmlns:xlink="http://www.w3.org/1999/xlink" width="500" zoomAndPan="magnify" viewBox="0 0 375 374.999991" height="500" preserveAspectRatio="xMidYMid meet" version="1.2"><defs><clipPath id="ed13fdbd82"><path d="M 11 27 L 366 27 L 366 355.734375 L 11 355.734375 Z M 11 27 "/></clipPath></defs><g id="9237577f70"><g clip-rule="nonzero" clip-path="url(#ed13fdbd82)"><path style=" stroke:none;fill-rule:nonzero;fill:#fcdc73;fill-opacity:1;" d="M 111.113281 355.699219 L 276.488281 355.699219 C 295.558594 355.699219 313.972656 348.726562 328.265625 336.097656 L 345.34375 321.003906 C 374.367188 295.359375 371.9375 249.359375 340.378906 226.914062 C 314.976562 208.847656 307.585938 174.355469 323.355469 147.464844 L 325.136719 144.425781 C 339.394531 120.117188 336.070312 89.339844 316.957031 68.636719 L 293.90625 43.664062 C 271.121094 18.980469 231.226562 22.195312 212.6875 50.214844 C 198.589844 71.523438 171.066406 79.363281 147.863281 68.679688 L 137.785156 64.042969 C 108.835938 50.714844 74.5 60.449219 56.847656 86.984375 L 45.527344 103.996094 C 34.328125 120.828125 32.960938 142.355469 41.933594 160.472656 C 52.246094 181.296875 48.78125 206.316406 33.199219 223.554688 L 28.65625 228.578125 C 0.289062 259.953125 8.007812 309.492188 44.574219 330.746094 L 67.097656 343.835938 C 80.464844 351.605469 95.652344 355.699219 111.113281 355.699219 Z M 111.113281 355.699219 "/></g><path style=" stroke:none;fill-rule:nonzero;fill:#193948;fill-opacity:1;" d="M 355.800781 307.351562 C 356.078125 328.566406 341.640625 346.480469 334.308594 352.753906 L 323.070312 352.753906 C 331.425781 324.445312 345.238281 310.371094 352.976562 305.6875 C 354.265625 304.90625 355.78125 305.84375 355.800781 307.351562 Z M 355.800781 307.351562 "/><path style=" stroke:none;fill-rule:nonzero;fill:#ffffff;fill-opacity:1;" d="M 356.988281 237.742188 C 368.5 281.121094 339.480469 332.503906 327.003906 351.628906 L 301.722656 351.628906 C 312.582031 269.777344 330.789062 249.882812 353.808594 236.441406 C 355.042969 235.71875 356.621094 236.355469 356.988281 237.742188 Z M 356.988281 237.742188 "/><path style=" stroke:none;fill-rule:evenodd;fill:#193948;fill-opacity:1;" d="M 354.371094 237.414062 C 354.980469 237.058594 355.726562 237.378906 355.902344 238.03125 C 361.574219 259.402344 357.277344 282.835938 349.933594 303.402344 C 342.726562 323.585938 332.636719 340.871094 326.394531 350.503906 L 303.003906 350.503906 C 308.410156 310.371094 315.59375 285.441406 324.203125 268.902344 C 332.867188 252.246094 343 244.054688 354.371094 237.414062 Z M 358.074219 237.453125 C 357.511719 235.335938 355.105469 234.378906 353.242188 235.46875 C 341.59375 242.269531 331.117188 250.746094 322.207031 267.859375 C 313.332031 284.917969 306.042969 310.503906 300.605469 351.480469 L 300.4375 352.753906 L 327.613281 352.753906 L 327.945312 352.242188 C 334.210938 342.640625 344.636719 324.929688 352.050781 304.160156 C 359.457031 283.410156 363.914062 259.460938 358.074219 237.453125 Z M 358.074219 237.453125 "/><path style=" stroke:none;fill-rule:nonzero;fill:#193948;fill-opacity:1;" d="M 316.222656 264.429688 C 326.164062 300.785156 314.78125 338.566406 307.339844 352.753906 L 288.800781 352.753906 C 284.628906 308.449219 301.578125 276.226562 312.722656 263.5625 C 313.824219 262.3125 315.78125 262.824219 316.222656 264.429688 Z M 316.222656 264.429688 "/><path style=" stroke:none;fill-rule:evenodd;fill:#193948;fill-opacity:1;" d="M 341.246094 268.609375 L 347.296875 251.578125 L 349.414062 252.332031 L 335.558594 291.34375 L 344.660156 288.605469 L 345.308594 290.761719 L 334.625 293.976562 L 322.023438 329.457031 L 333.363281 325.230469 L 334.148438 327.34375 L 321.039062 332.226562 L 314.015625 352.007812 L 311.898438 351.25 L 326.164062 311.082031 L 320.890625 296.257812 L 323.007812 295.5 L 327.355469 307.726562 L 339.972656 272.199219 L 336.042969 259.035156 L 338.195312 258.390625 Z M 341.246094 268.609375 "/><path style=" stroke:none;fill-rule:evenodd;fill:#ffffff;fill-opacity:1;" d="M 306.738281 293.460938 L 309.605469 277.65625 L 311.816406 278.0625 L 305.996094 310.136719 L 313.558594 306.144531 L 314.605469 308.136719 L 305.488281 312.949219 L 300.496094 340.460938 L 306.746094 335.539062 L 308.136719 337.308594 L 299.890625 343.804688 L 298.332031 352.394531 L 296.121094 351.988281 L 300.117188 329.957031 L 293.527344 321.34375 L 295.308594 319.972656 L 300.660156 326.964844 L 306.234375 296.230469 L 300.894531 290.449219 L 302.546875 288.917969 Z M 306.738281 293.460938 "/><path style=" stroke:none;fill-rule:nonzero;fill:#ffffff;fill-opacity:1;" d="M 108.367188 86.609375 L 112.6875 87.65625 C 113.457031 87.84375 113.535156 88.90625 112.800781 89.203125 L 108.773438 90.828125 C 108.53125 90.925781 108.347656 91.136719 108.285156 91.390625 L 107.167969 96.011719 C 106.988281 96.753906 105.972656 96.859375 105.640625 96.171875 L 103.558594 91.84375 C 103.457031 91.632812 103.269531 91.472656 103.046875 91.410156 L 97.96875 89.976562 C 97.214844 89.765625 97.164062 88.710938 97.898438 88.433594 L 102.519531 86.660156 C 102.742188 86.574219 102.917969 86.394531 102.996094 86.167969 L 104.75 81.074219 C 105.003906 80.328125 106.070312 80.347656 106.296875 81.109375 L 107.777344 86.050781 C 107.859375 86.328125 108.082031 86.539062 108.367188 86.609375 Z M 108.367188 86.609375 "/><path style=" stroke:none;fill-rule:nonzero;fill:#ffffff;fill-opacity:1;" d="M 73.816406 129.253906 L 74.933594 130.15625 C 75.546875 130.65625 75.160156 131.652344 74.371094 131.601562 L 72.976562 131.519531 C 72.714844 131.503906 72.460938 131.613281 72.296875 131.820312 L 71.199219 133.171875 C 70.714844 133.765625 69.753906 133.425781 69.75 132.660156 L 69.746094 130.867188 C 69.742188 130.632812 69.640625 130.410156 69.464844 130.257812 L 67.957031 128.9375 C 67.367188 128.421875 67.777344 127.449219 68.558594 127.511719 L 70.355469 127.652344 C 70.597656 127.671875 70.832031 127.582031 71 127.410156 L 72.421875 125.960938 C 72.976562 125.394531 73.929688 125.875 73.808594 126.65625 L 73.523438 128.496094 C 73.480469 128.78125 73.59375 129.070312 73.816406 129.253906 Z M 73.816406 129.253906 "/><path style=" stroke:none;fill-rule:nonzero;fill:#4fadc0;fill-opacity:1;" d="M 343.523438 195.34375 L 340.285156 199.738281 C 340.089844 200.003906 339.765625 200.132812 339.453125 200.070312 L 335.453125 199.277344 C 334.589844 199.105469 334.074219 200.253906 334.738281 200.859375 L 337.878906 203.71875 C 338.109375 203.925781 338.21875 204.25 338.164062 204.566406 L 337.378906 209.285156 C 337.226562 210.171875 338.257812 210.71875 338.84375 210.066406 L 342.074219 206.4375 C 342.261719 206.226562 342.539062 206.125 342.8125 206.164062 L 346.550781 206.703125 C 347.390625 206.824219 347.867188 205.710938 347.226562 205.117188 L 344.449219 202.546875 C 344.222656 202.34375 344.117188 202.027344 344.164062 201.71875 L 345.042969 196.050781 C 345.1875 195.121094 344.066406 194.605469 343.523438 195.34375 Z M 343.523438 195.34375 "/><path style=" stroke:none;fill-rule:nonzero;fill:#ffffff;fill-opacity:1;" d="M 147.847656 79.027344 C 147.847656 72.523438 153.117188 67.253906 159.621094 67.253906 L 293.570312 67.253906 C 300.070312 67.253906 305.34375 72.523438 305.34375 79.027344 L 305.34375 340.941406 C 305.34375 347.445312 300.070312 352.714844 293.570312 352.714844 L 159.621094 352.714844 C 153.117188 352.714844 147.847656 347.445312 147.847656 340.941406 Z M 147.847656 79.027344 "/><path style=" stroke:none;fill-rule:evenodd;fill:#193948;fill-opacity:1;" d="M 146.863281 79.027344 C 146.863281 71.980469 152.574219 66.269531 159.621094 66.269531 L 293.570312 66.269531 C 300.613281 66.269531 306.324219 71.980469 306.324219 79.027344 L 306.324219 340.941406 C 306.324219 347.984375 300.613281 353.695312 293.570312 353.695312 L 159.621094 353.695312 C 152.574219 353.695312 146.863281 347.984375 146.863281 340.941406 Z M 159.621094 68.234375 C 153.660156 68.234375 148.828125 73.066406 148.828125 79.027344 L 148.828125 340.941406 C 148.828125 346.902344 153.660156 351.734375 159.621094 351.734375 L 293.570312 351.734375 C 299.53125 351.734375 304.363281 346.902344 304.363281 340.941406 L 304.363281 79.027344 C 304.363281 73.066406 299.53125 68.234375 293.570312 68.234375 Z M 159.621094 68.234375 "/><path style=" stroke:none;fill-rule:nonzero;fill:#fcdc73;fill-opacity:1;" d="M 272.453125 172.21875 C 272.453125 197.6875 251.808594 218.335938 226.339844 218.335938 C 200.871094 218.335938 180.226562 197.6875 180.226562 172.21875 C 180.226562 146.75 200.871094 126.105469 226.339844 126.105469 C 251.808594 126.105469 272.453125 146.75 272.453125 172.21875 Z M 272.453125 172.21875 "/><path style=" stroke:none;fill-rule:nonzero;fill:#193948;fill-opacity:1;" d="M 195.277344 76.824219 L 190.175781 67.25 L 263.015625 67.25 L 257.015625 77.253906 C 255.242188 80.207031 252.046875 82.015625 248.601562 82.015625 L 203.933594 82.015625 C 200.3125 82.015625 196.984375 80.019531 195.277344 76.824219 Z M 195.277344 76.824219 "/><path style=" stroke:none;fill-rule:nonzero;fill:#193948;fill-opacity:1;" d="M 303.410156 73.15625 L 148.773438 73.15625 C 153.890625 68.039062 158.78125 67.085938 160.585938 67.25 L 291.597656 67.25 C 297.898438 67.25 302.097656 71.1875 303.410156 73.15625 Z M 303.410156 73.15625 "/><path style=" stroke:none;fill-rule:nonzero;fill:#193948;fill-opacity:1;" d="M 303.292969 347.117188 L 149.808594 347.117188 C 155.128906 352.320312 158.203125 353.285156 160.078125 353.121094 L 293.023438 353.121094 C 299.570312 353.121094 301.929688 349.121094 303.292969 347.117188 Z M 303.292969 347.117188 "/><path style=" stroke:none;fill-rule:nonzero;fill:#4fadc0;fill-opacity:1;" d="M 170.414062 104.519531 C 170.414062 103.433594 171.289062 102.558594 172.375 102.558594 L 224.628906 102.558594 C 225.710938 102.558594 226.589844 103.433594 226.589844 104.519531 L 226.589844 106.613281 C 226.589844 107.699219 225.710938 108.574219 224.628906 108.574219 L 172.375 108.574219 C 171.289062 108.574219 170.414062 107.699219 170.414062 106.613281 Z M 170.414062 104.519531 "/><path style=" stroke:none;fill-rule:nonzero;fill:#193948;fill-opacity:1;" d="M 170.414062 236.976562 C 170.414062 235.894531 171.289062 235.015625 172.375 235.015625 L 224.628906 235.015625 C 225.710938 235.015625 226.589844 235.894531 226.589844 236.976562 L 226.589844 239.070312 C 226.589844 240.15625 225.710938 241.03125 224.628906 241.03125 L 172.375 241.03125 C 171.289062 241.03125 170.414062 240.15625 170.414062 239.070312 Z M 170.414062 236.976562 "/><path style=" stroke:none;fill-rule:nonzero;fill:#193948;fill-opacity:1;" d="M 170.414062 288.976562 C 170.414062 287.894531 171.289062 287.015625 172.375 287.015625 L 203.773438 287.015625 C 204.855469 287.015625 205.734375 287.894531 205.734375 288.976562 L 205.734375 290.941406 C 205.734375 292.023438 204.855469 292.902344 203.773438 292.902344 L 172.375 292.902344 C 171.289062 292.902344 170.414062 292.023438 170.414062 290.941406 Z M 170.414062 288.976562 "/><path style=" stroke:none;fill-rule:nonzero;fill:#fcdc73;fill-opacity:1;" d="M 170.414062 251.695312 C 170.414062 250.609375 171.289062 249.730469 172.375 249.730469 L 277.359375 249.730469 C 278.445312 249.730469 279.320312 250.609375 279.320312 251.695312 L 279.320312 271.316406 C 279.320312 272.402344 278.445312 273.28125 277.359375 273.28125 L 172.375 273.28125 C 171.289062 273.28125 170.414062 272.402344 170.414062 271.316406 Z M 170.414062 251.695312 "/><path style=" stroke:none;fill-rule:nonzero;fill:#fcdc73;fill-opacity:1;" d="M 170.414062 302.714844 C 170.414062 301.632812 171.289062 300.753906 172.375 300.753906 L 277.359375 300.753906 C 278.445312 300.753906 279.320312 301.632812 279.320312 302.714844 L 279.320312 322.339844 C 279.320312 323.421875 278.445312 324.300781 277.359375 324.300781 L 172.375 324.300781 C 171.289062 324.300781 170.414062 323.421875 170.414062 322.339844 Z M 170.414062 302.714844 "/><path style=" stroke:none;fill-rule:evenodd;fill:#193948;fill-opacity:1;" d="M 292.324219 81.28125 L 294.285156 81.28125 L 294.285156 89.304688 L 292.324219 89.304688 Z M 292.324219 81.28125 "/><path style=" stroke:none;fill-rule:evenodd;fill:#193948;fill-opacity:1;" d="M 287.308594 82.28125 L 289.269531 82.28125 L 289.269531 89.304688 L 287.308594 89.304688 Z M 287.308594 82.28125 "/><path style=" stroke:none;fill-rule:evenodd;fill:#193948;fill-opacity:1;" d="M 282.292969 84.289062 L 284.253906 84.289062 L 284.253906 89.304688 L 282.292969 89.304688 Z M 282.292969 84.289062 "/><path style=" stroke:none;fill-rule:evenodd;fill:#193948;fill-opacity:1;" d="M 277.277344 86.296875 L 279.238281 86.296875 L 279.238281 89.304688 L 277.277344 89.304688 Z M 277.277344 86.296875 "/><path style=" stroke:none;fill-rule:nonzero;fill:#ffffff;fill-opacity:1;" d="M 226.78125 172.777344 C 213.800781 172.777344 203.105469 182.707031 201.671875 195.488281 C 201.488281 197.105469 202.824219 198.425781 204.449219 198.425781 L 249.113281 198.425781 C 250.738281 198.425781 252.074219 197.105469 251.890625 195.488281 C 250.453125 182.707031 239.761719 172.777344 226.78125 172.777344 Z M 226.78125 172.777344 "/><path style=" stroke:none;fill-rule:nonzero;fill:#ffffff;fill-opacity:1;" d="M 239.226562 157.6875 C 239.226562 164.351562 233.824219 169.757812 227.15625 169.757812 C 220.492188 169.757812 215.085938 164.351562 215.085938 157.6875 C 215.085938 151.019531 220.492188 145.613281 227.15625 145.613281 C 233.824219 145.613281 239.226562 151.019531 239.226562 157.6875 Z M 239.226562 157.6875 "/><path style=" stroke:none;fill-rule:nonzero;fill:#e76268;fill-opacity:1;" d="M 124.382812 196.785156 L 128.371094 209.117188 C 129.964844 214.910156 124.382812 221.015625 111.09375 221.015625 C 100.464844 221.015625 98.339844 214.945312 98.875 210.027344 L 102.058594 193.097656 C 99.402344 190.464844 97.273438 188.886719 97.273438 176.242188 C 97.273438 160.441406 105.78125 154.648438 115.878906 154.648438 C 125.976562 154.648438 134.480469 163.066406 134.480469 178.351562 C 134.484375 191.519531 127.394531 195.730469 124.382812 196.785156 Z M 124.382812 196.785156 "/><path style=" stroke:none;fill-rule:nonzero;fill:#193948;fill-opacity:1;" d="M 149.605469 185.234375 C 157.511719 193.480469 156.449219 213.785156 155.238281 219.972656 C 142.429688 210.476562 133.761719 207.332031 129.277344 206.96875 C 128.554688 206.910156 128.421875 208.589844 127.914062 208.664062 L 124.109375 196.058594 C 129.832031 194.511719 133.472656 189.359375 133.996094 177.503906 C 134.410156 168.015625 129.660156 161.523438 127.230469 159.460938 C 118.90625 158.945312 114.742188 169.253906 112.140625 173.378906 C 110.0625 176.675781 108.5 176.128906 107.980469 175.441406 C 105.378906 169.253906 100.695312 168.738281 99.65625 175.441406 C 98.820312 180.800781 102.777344 183.515625 104.859375 184.203125 L 98.875 210.484375 C 98.171875 210.523438 97.511719 208.207031 97.511719 207.175781 C 86.390625 208.410156 74.175781 214.289062 70.53125 216.730469 C 68.96875 200.234375 84.046875 187.8125 88.207031 177.503906 C 92.371094 167.191406 86.648438 162.039062 90.808594 155.335938 C 93.894531 150.371094 99.65625 149.664062 103.296875 148.632812 C 106.9375 147.605469 109.019531 143.480469 113.183594 141.417969 C 120.464844 138.839844 127.40625 145.199219 129.3125 149.664062 C 130.527344 149.492188 133.996094 149.972656 138.15625 153.273438 C 150.125 161.523438 139.71875 174.925781 149.605469 185.234375 Z M 149.605469 185.234375 "/><path style=" stroke:none;fill-rule:nonzero;fill:#193948;fill-opacity:1;" d="M 113.8125 196.128906 C 120.011719 197.582031 123.628906 197.035156 124.664062 196.582031 L 126.214844 201.574219 C 119.597656 202.296875 115.1875 198.246094 113.8125 196.128906 Z M 113.8125 196.128906 "/><path style=" stroke:none;fill-rule:nonzero;fill:#4fadc0;fill-opacity:1;" d="M 112.421875 216.242188 C 122.859375 216.242188 127.753906 209.8125 128.898438 206.597656 C 148.8125 206.597656 165.292969 220.378906 172.84375 230.023438 C 180.398438 239.667969 208.550781 290.648438 201.683594 311.3125 C 196.191406 327.847656 182.914062 330.375 175.589844 329.226562 L 176.804688 351.144531 C 176.890625 352.710938 175.648438 354.027344 174.085938 354.027344 L 73.285156 354.027344 C 62.753906 354.714844 39.777344 354.992188 32.085938 350.582031 C 22.472656 345.070312 13.546875 316.828125 32.085938 261.023438 C 46.917969 216.382812 81.75 206.140625 97.316406 206.597656 C 98.003906 209.8125 101.984375 216.242188 112.421875 216.242188 Z M 112.421875 216.242188 "/><path style=" stroke:none;fill-rule:nonzero;fill:#193948;fill-opacity:1;" d="M 62.417969 354.070312 C 45.867188 333.828125 28.363281 326.605469 21.683594 325.523438 C 21.683594 332.011719 24.914062 344.335938 30.734375 350.175781 C 35.390625 354.847656 53.796875 354.71875 62.417969 354.070312 Z M 62.417969 354.070312 "/><path style=" stroke:none;fill-rule:nonzero;fill:#193948;fill-opacity:1;" d="M 190.449219 326.820312 C 201.3125 322.667969 203.167969 307.789062 202.734375 300.871094 C 192.90625 305.539062 179.671875 321.414062 174.285156 328.765625 C 175.144531 329.847656 179.585938 330.972656 190.449219 326.820312 Z M 190.449219 326.820312 "/><path style=" stroke:none;fill-rule:nonzero;fill:#193948;fill-opacity:1;" d="M 111.046875 279.625 C 106.242188 281.691406 70.539062 298.453125 54.058594 306.492188 C 56.117188 303.046875 64.359375 297.535156 66.417969 295.46875 C 68.476562 293.402344 76.03125 269.289062 76.03125 272.734375 C 76.03125 276.179688 71.910156 292.027344 73.972656 292.027344 C 76.03125 292.027344 104.871094 279.625 111.046875 279.625 Z M 111.046875 279.625 "/><path style=" stroke:none;fill-rule:nonzero;fill:#193948;fill-opacity:1;" d="M 125.46875 299.601562 C 96.355469 338.734375 72.597656 352.648438 64.359375 354.71875 L 78.777344 354.71875 C 103.496094 335.425781 120.203125 309.9375 125.46875 299.601562 Z M 125.46875 299.601562 "/><path style=" stroke:none;fill-rule:nonzero;fill:#193948;fill-opacity:1;" d="M 161.171875 292.714844 C 162.269531 305.941406 171.699219 322.566406 176.277344 329.226562 L 176.277344 335.425781 C 165.839844 323.851562 161.859375 302.128906 161.171875 292.714844 Z M 161.171875 292.714844 "/><path style=" stroke:none;fill-rule:nonzero;fill:#193948;fill-opacity:1;" d="M 174.21875 274.113281 C 178.0625 276.316406 184.976562 281.460938 187.949219 283.757812 L 176.964844 270.667969 C 176.414062 272.875 174.90625 273.882812 174.21875 274.113281 Z M 174.21875 274.113281 "/><path style=" stroke:none;fill-rule:nonzero;fill:#ffffff;fill-opacity:1;" d="M 133.628906 248.695312 L 128.335938 300.46875 C 128.277344 301.070312 128.804688 301.5625 129.398438 301.457031 L 154.351562 296.960938 C 154.734375 296.894531 155.03125 296.585938 155.089844 296.199219 L 162.378906 246.992188 C 162.464844 246.414062 161.996094 245.90625 161.417969 245.949219 L 134.46875 247.878906 C 134.027344 247.910156 133.675781 248.253906 133.628906 248.695312 Z M 133.628906 248.695312 "/><path style=" stroke:none;fill-rule:evenodd;fill:#193948;fill-opacity:1;" d="M 161.351562 245.039062 C 162.511719 244.957031 163.445312 245.972656 163.277344 247.125 L 155.984375 296.335938 C 155.871094 297.109375 155.277344 297.722656 154.511719 297.859375 L 129.558594 302.351562 C 128.371094 302.566406 127.308594 301.578125 127.433594 300.375 L 132.726562 248.601562 C 132.816406 247.722656 133.523438 247.035156 134.402344 246.972656 Z M 161.480469 246.855469 L 134.53125 248.789062 L 129.238281 300.558594 L 154.191406 296.066406 Z M 161.480469 246.855469 "/><path style=" stroke:none;fill-rule:nonzero;fill:#e76268;fill-opacity:1;" d="M 169.410156 274.113281 L 161.171875 286.515625 C 150.1875 287.203125 148.125 281.003906 150.1875 271.359375 C 151.835938 263.640625 157.96875 263.550781 160.484375 264.46875 L 161.859375 258.957031 C 169.410156 265.15625 169.410156 271.128906 169.410156 274.113281 Z M 169.410156 274.113281 "/><path style=" stroke:none;fill-rule:nonzero;fill:#e76268;fill-opacity:1;" d="M 121.347656 272.734375 C 119.699219 277.144531 116.539062 280.085938 115.167969 281.003906 L 124.09375 294.78125 C 126.839844 292.027344 130.273438 292.027344 137.828125 288.582031 C 145.378906 285.136719 147.4375 272.734375 145.378906 265.847656 C 143.730469 260.335938 134.164062 264.46875 130.273438 267.226562 L 130.960938 259.648438 C 126.152344 261.714844 123.40625 267.226562 121.347656 272.734375 Z M 121.347656 272.734375 "/><path style=" stroke:none;fill-rule:nonzero;fill:#ffffff;fill-opacity:1;" d="M 360.757812 143.765625 C 360.757812 162.191406 345.824219 177.125 327.398438 177.125 C 308.976562 177.125 294.039062 162.191406 294.039062 143.765625 C 294.039062 125.339844 308.976562 110.40625 327.398438 110.40625 C 345.824219 110.40625 360.757812 125.339844 360.757812 143.765625 Z M 360.757812 143.765625 "/><path style=" stroke:none;fill-rule:evenodd;fill:#193948;fill-opacity:1;" d="M 327.398438 111.226562 C 309.425781 111.226562 294.859375 125.792969 294.859375 143.765625 C 294.859375 161.738281 309.425781 176.304688 327.398438 176.304688 C 345.371094 176.304688 359.9375 161.738281 359.9375 143.765625 C 359.9375 125.792969 345.371094 111.226562 327.398438 111.226562 Z M 293.21875 143.765625 C 293.21875 124.890625 308.523438 109.585938 327.398438 109.585938 C 346.277344 109.585938 361.578125 124.890625 361.578125 143.765625 C 361.578125 162.644531 346.277344 177.945312 327.398438 177.945312 C 308.523438 177.945312 293.21875 162.644531 293.21875 143.765625 Z M 293.21875 143.765625 "/><path style=" stroke:none;fill-rule:evenodd;fill:#193948;fill-opacity:1;" d="M 327.792969 123.113281 C 321.433594 123.113281 316.277344 128.355469 316.277344 134.820312 L 316.277344 142.839844 C 316.277344 143.789062 317.046875 144.558594 318 144.558594 C 318.949219 144.558594 319.722656 143.789062 319.722656 142.839844 L 319.722656 134.601562 C 319.722656 130.070312 323.335938 126.398438 327.792969 126.398438 C 332.25 126.398438 335.867188 130.070312 335.867188 134.601562 L 335.867188 142.410156 C 335.867188 143.359375 336.636719 144.128906 337.589844 144.128906 C 338.539062 144.128906 339.3125 143.359375 339.3125 142.410156 L 339.3125 134.820312 C 339.3125 128.355469 334.15625 123.113281 327.792969 123.113281 Z M 327.792969 123.113281 "/><path style=" stroke:none;fill-rule:nonzero;fill:#4fadc0;fill-opacity:1;" d="M 313.097656 143.050781 C 313.097656 141.691406 314.199219 140.589844 315.558594 140.589844 L 340.027344 140.589844 C 341.386719 140.589844 342.488281 141.691406 342.488281 143.050781 L 342.488281 161.160156 C 342.488281 162.519531 341.386719 163.621094 340.027344 163.621094 L 315.558594 163.621094 C 314.199219 163.621094 313.097656 162.519531 313.097656 161.160156 Z M 313.097656 143.050781 "/><path style=" stroke:none;fill-rule:evenodd;fill:#ffffff;fill-opacity:1;" d="M 329.667969 153.058594 C 330.347656 152.511719 330.785156 151.671875 330.785156 150.726562 C 330.785156 149.074219 329.445312 147.738281 327.792969 147.738281 C 326.140625 147.738281 324.800781 149.074219 324.800781 150.726562 C 324.800781 151.753906 325.320312 152.660156 326.105469 153.199219 L 325.441406 156 C 325.339844 156.417969 325.65625 156.820312 326.085938 156.820312 L 329.71875 156.820312 C 330.148438 156.820312 330.464844 156.417969 330.367188 156 Z M 329.667969 153.058594 "/></g></svg>