<svg xmlns="http://www.w3.org/2000/svg" xmlns:xlink="http://www.w3.org/1999/xlink" width="500" zoomAndPan="magnify" viewBox="0 0 375 374.999991" height="500" preserveAspectRatio="xMidYMid meet" version="1.2"><defs><clipPath id="109ac43a9d"><path d="M 104 4 L 277 4 L 277 258 L 104 258 Z M 104 4 "/></clipPath><clipPath id="2b661ec452"><path d="M 314.234375 32.355469 L 193.046875 297.890625 L 75.285156 244.144531 L 196.476562 -21.390625 Z M 314.234375 32.355469 "/></clipPath><clipPath id="a683666ed6"><path d="M 314.234375 32.355469 L 193.046875 297.890625 L 75.285156 244.144531 L 196.476562 -21.390625 Z M 314.234375 32.355469 "/></clipPath><clipPath id="089df3d3ae"><path d="M 84 205 L 284 205 L 284 372 L 84 372 Z M 84 205 "/></clipPath><clipPath id="dab3177ebc"><path d="M -16.148438 166.492188 L 300.105469 75.40625 L 391.1875 391.660156 L 74.933594 482.746094 Z M -16.148438 166.492188 "/></clipPath><clipPath id="5e4975d631"><path d="M -16.148438 166.492188 L 300.105469 75.40625 L 391.1875 391.660156 L 74.933594 482.746094 Z M -16.148438 166.492188 "/></clipPath></defs><g id="8489bf08ad"><g clip-rule="nonzero" clip-path="url(#109ac43a9d)"><g clip-rule="nonzero" clip-path="url(#2b661ec452)"><g clip-rule="nonzero" clip-path="url(#a683666ed6)"><path style=" stroke:none;fill-rule:nonzero;fill:#193948;fill-opacity:1;" d="M 216.707031 225.25 C 217.101562 225.136719 217.429688 224.855469 217.609375 224.480469 C 217.796875 224.105469 217.792969 223.675781 217.632812 223.296875 L 185.695312 148.285156 L 275.742188 115.140625 C 276.222656 114.964844 276.574219 114.542969 276.664062 114.046875 C 276.753906 113.539062 276.574219 113.027344 276.1875 112.691406 L 211.46875 57.039062 L 253.472656 6.792969 C 253.914062 6.261719 253.925781 5.488281 253.484375 4.953125 C 253.050781 4.414062 252.289062 4.265625 251.683594 4.59375 L 163.867188 51.425781 C 163.582031 51.574219 163.363281 51.8125 163.234375 52.097656 C 163.179688 52.214844 163.136719 52.339844 163.121094 52.464844 C 163.050781 52.910156 163.195312 53.363281 163.503906 53.695312 L 207.46875 99.464844 L 126.683594 140.84375 C 125.992188 141.195312 125.703125 142.03125 126.027344 142.734375 L 154.746094 204.894531 L 105.269531 255.09375 C 104.804688 255.5625 104.714844 256.285156 105.054688 256.84375 C 105.390625 257.410156 106.074219 257.675781 106.699219 257.492188 Z M 216.707031 225.25 "/></g></g></g><g clip-rule="nonzero" clip-path="url(#089df3d3ae)"><g clip-rule="nonzero" clip-path="url(#dab3177ebc)"><g clip-rule="nonzero" clip-path="url(#5e4975d631)"><path style=" stroke:none;fill-rule:nonzero;fill:#fac517;fill-opacity:1;" d="M 199.144531 351.164062 C 217.558594 345.863281 232.152344 341.492188 243.121094 338.160156 L 270.664062 330.226562 C 277.742188 328.191406 281.675781 324.667969 282.488281 319.835938 C 283.269531 314.835938 283.289062 310.746094 282.335938 307.4375 L 259.402344 227.808594 C 258.449219 224.503906 256.300781 221.203125 252.980469 217.382812 C 249.722656 213.726562 244.570312 212.996094 237.53125 215.1875 C 230.601562 217.183594 223.683594 219.175781 216.710938 221.019531 C 209.78125 223.015625 202.816406 224.84375 195.890625 226.839844 C 195.386719 222.726562 193.828125 217.890625 191.164062 212.183594 C 188.648438 206.433594 184.957031 204.261719 180.082031 205.664062 L 140.265625 217.132812 C 136.648438 218.175781 134.742188 220.425781 134.429688 224.089844 C 134.28125 227.714844 134.652344 231.359375 135.648438 234.820312 L 138.140625 243.46875 C 131.210938 245.464844 124.339844 247.621094 117.414062 249.617188 C 110.535156 251.761719 103.613281 253.757812 96.6875 255.75 C 89.871094 257.550781 86.058594 260.859375 84.917969 265.785156 C 83.984375 270.828125 83.925781 274.765625 84.875 278.070312 L 107.949219 358.171875 C 108.855469 361.324219 111.042969 364.777344 114.269531 368.28125 C 117.695312 371.890625 122.894531 372.785156 129.820312 370.789062 L 150.589844 364.808594 C 157.5625 362.96875 164.480469 360.976562 171.40625 358.980469 C 171.609375 359.097656 180.945312 356.582031 199.144531 351.164062 Z M 143.9375 231.074219 C 143.433594 226.953125 144.78125 224.523438 148.082031 223.574219 C 152.964844 222.167969 157.371094 220.898438 161.253906 219.605469 C 165.191406 218.472656 170.496094 216.777344 177.269531 214.828125 C 179.941406 214.058594 182.035156 214.816406 183.660156 216.910156 C 185.234375 218.839844 186.390625 221.058594 186.980469 223.105469 C 187.617188 225.3125 187.953125 227.089844 188.25 228.703125 L 146.386719 240.757812 C 145.300781 238.175781 144.394531 235.027344 143.9375 231.074219 Z M 143.9375 231.074219 "/></g></g></g></g></svg>